<svg id="svg" version="1.1" xmlns="http://www.w3.org/2000/svg" xmlns:xlink="http://www.w3.org/1999/xlink" width="400" height="400" viewBox="0, 0, 400,400"><g id="svgg"><path id="path0" d="M0.000 200.000 L 0.000 400.000 200.000 400.000 L 400.000 400.000 400.000 200.000 L 400.000 0.000 200.000 0.000 L 0.000 0.000 0.000 200.000 M227.200 4.336 C 227.200 4.520,227.634 4.869,228.163 5.111 C 229.188 5.577,231.600 8.783,231.600 9.678 C 231.600 9.972,231.945 10.855,232.366 11.640 C 232.787 12.426,233.255 13.953,233.406 15.034 C 233.557 16.116,233.932 17.771,234.240 18.714 C 234.859 20.609,234.933 24.032,234.416 26.800 C 233.444 31.996,232.760 35.083,232.421 35.800 C 232.213 36.240,231.491 38.015,230.816 39.744 C 230.141 41.473,229.232 43.342,228.795 43.898 C 228.358 44.453,228.000 45.182,228.000 45.516 C 228.000 45.851,227.550 46.714,227.000 47.436 C 226.450 48.157,226.000 48.868,226.000 49.016 C 226.000 49.475,220.403 56.611,217.600 59.727 C 215.226 62.366,209.748 67.776,207.329 69.871 C 206.268 70.791,204.431 72.409,203.247 73.468 C 202.063 74.526,200.533 75.802,199.847 76.302 C 195.019 79.823,186.607 88.347,185.087 91.259 C 184.703 91.997,183.773 93.590,183.021 94.800 C 180.604 98.692,179.318 106.022,180.002 112.017 C 180.401 115.514,181.053 117.452,183.872 123.520 C 184.822 125.565,185.600 127.395,185.600 127.586 C 185.600 127.777,185.747 127.993,185.926 128.067 C 186.105 128.140,187.458 130.000,188.932 132.200 C 192.431 137.423,194.178 139.955,195.189 141.270 C 195.641 141.859,196.562 143.389,197.236 144.670 C 197.909 145.952,198.730 147.299,199.060 147.665 C 199.792 148.476,199.627 150.377,198.779 150.908 C 198.293 151.212,197.546 150.697,195.355 148.548 C 193.814 147.037,190.786 144.090,188.626 142.000 C 185.079 138.568,181.371 134.627,174.700 127.202 C 173.435 125.794,172.400 124.439,172.400 124.192 C 172.400 123.945,171.865 123.035,171.211 122.171 C 170.557 121.307,170.017 120.375,170.011 120.100 C 170.005 119.825,169.861 119.600,169.692 119.600 C 169.402 119.600,167.554 116.119,165.642 111.974 C 165.179 110.969,164.800 109.693,164.800 109.137 C 164.800 108.582,164.532 107.244,164.204 106.164 C 163.090 102.490,164.083 93.452,165.738 92.200 C 166.029 91.980,166.394 91.292,166.549 90.671 C 166.882 89.333,171.470 83.346,173.937 81.030 C 174.892 80.134,177.336 77.780,179.366 75.800 C 181.397 73.820,183.556 71.840,184.164 71.400 C 184.772 70.960,185.659 70.223,186.135 69.763 C 186.611 69.302,188.273 67.947,189.828 66.750 C 191.383 65.554,193.273 63.997,194.028 63.289 C 194.783 62.582,195.593 62.003,195.828 62.002 C 196.063 62.001,196.632 61.567,197.093 61.038 C 197.553 60.508,198.800 59.572,199.865 58.957 C 200.929 58.342,201.890 57.724,202.000 57.584 C 202.110 57.444,203.460 56.244,205.000 54.918 C 208.554 51.857,209.269 51.154,212.200 47.832 C 213.520 46.337,215.365 44.312,216.300 43.333 C 217.235 42.354,218.000 41.420,218.000 41.257 C 218.000 41.093,218.787 39.879,219.749 38.557 C 220.710 37.235,221.632 35.714,221.796 35.177 C 221.960 34.640,222.329 33.930,222.616 33.600 C 223.168 32.965,223.751 31.510,225.661 26.000 C 226.860 22.540,227.185 10.850,226.203 6.505 C 226.042 5.793,226.015 4.938,226.143 4.605 C 226.387 3.968,227.200 3.761,227.200 4.336 M257.200 59.574 C 257.200 60.658,256.276 62.093,255.303 62.519 C 253.916 63.128,252.364 64.152,249.737 66.195 C 247.664 67.808,243.592 70.511,241.645 71.567 C 241.070 71.879,240.420 72.346,240.200 72.606 C 239.980 72.865,239.083 73.510,238.206 74.039 C 237.329 74.567,236.318 75.180,235.959 75.400 C 234.270 76.435,232.868 77.507,231.400 78.887 C 230.520 79.715,229.640 80.393,229.444 80.396 C 228.670 80.405,220.921 89.046,219.729 91.229 C 219.317 91.983,218.690 93.050,218.335 93.600 C 217.980 94.150,217.564 95.314,217.411 96.186 C 217.257 97.059,216.877 98.265,216.566 98.866 C 215.333 101.250,217.553 108.683,220.788 113.000 C 221.447 113.880,222.206 115.050,222.475 115.600 C 222.744 116.150,223.242 116.891,223.582 117.247 C 223.922 117.603,224.606 118.413,225.102 119.047 C 225.598 119.681,226.453 120.766,227.002 121.458 C 227.551 122.150,228.000 122.867,228.000 123.052 C 228.000 123.237,228.424 124.291,228.941 125.394 C 233.156 134.373,230.851 143.893,222.580 151.667 C 218.962 155.067,217.428 156.400,217.130 156.400 C 216.964 156.400,216.237 156.918,215.514 157.552 C 213.070 159.695,208.692 160.508,210.529 158.478 C 210.898 158.070,211.200 157.622,211.200 157.481 C 211.200 157.340,211.907 156.184,212.770 154.913 C 217.119 148.507,216.371 139.090,211.061 133.400 C 210.650 132.960,209.889 131.970,209.371 131.200 C 208.852 130.430,207.903 129.080,207.262 128.200 C 205.798 126.190,202.000 118.748,202.000 117.889 C 202.000 117.536,201.834 117.145,201.631 117.019 C 201.429 116.894,200.780 115.341,200.189 113.568 C 198.328 107.980,198.707 101.757,201.222 96.600 C 201.651 95.720,202.002 94.604,202.001 94.121 C 202.000 93.637,202.450 92.756,203.000 92.162 C 203.550 91.569,204.002 90.884,204.004 90.642 C 204.013 89.510,212.816 79.600,213.811 79.600 C 214.081 79.600,214.549 79.299,214.851 78.931 C 215.367 78.303,219.694 75.354,222.074 74.008 C 222.665 73.673,224.105 72.742,225.274 71.937 C 226.443 71.133,228.210 70.064,229.200 69.564 C 230.190 69.063,231.403 68.346,231.897 67.972 C 232.390 67.597,233.460 67.165,234.275 67.012 C 235.090 66.859,236.196 66.389,236.733 65.967 C 237.269 65.545,237.949 65.200,238.244 65.200 C 238.539 65.200,239.370 64.841,240.090 64.401 C 240.811 63.962,241.670 63.601,242.000 63.599 C 242.330 63.597,243.140 63.302,243.800 62.943 C 244.460 62.585,245.900 62.054,247.000 61.763 C 248.100 61.472,249.990 60.970,251.200 60.646 C 253.317 60.080,256.276 59.356,256.900 59.251 C 257.065 59.223,257.200 59.368,257.200 59.574 M278.591 148.828 C 281.226 149.060,283.926 149.490,284.591 149.785 C 285.256 150.080,286.340 150.494,287.000 150.705 C 289.319 151.448,295.600 156.317,295.600 157.372 C 295.600 157.583,296.030 158.216,296.556 158.778 C 301.121 163.659,299.607 175.774,293.585 182.562 C 290.041 186.556,286.132 190.083,284.500 190.759 C 283.785 191.055,283.200 191.460,283.200 191.658 C 283.200 191.857,282.795 192.197,282.300 192.413 C 281.805 192.629,280.500 193.347,279.400 194.007 C 278.300 194.667,276.770 195.495,276.000 195.847 C 275.230 196.198,274.464 196.723,274.298 197.012 C 274.131 197.301,273.411 197.662,272.698 197.815 C 271.984 197.968,271.220 198.223,271.000 198.382 C 270.326 198.870,263.071 201.147,261.274 201.435 C 260.344 201.583,259.486 201.861,259.368 202.053 C 259.067 202.539,256.501 202.488,256.193 201.989 C 255.753 201.277,257.351 199.089,258.642 198.635 C 259.322 198.396,260.189 197.885,260.568 197.500 C 260.947 197.115,261.533 196.800,261.871 196.800 C 262.208 196.800,263.019 196.350,263.673 195.800 C 264.327 195.250,265.118 194.800,265.431 194.800 C 265.744 194.800,266.000 194.611,266.000 194.380 C 266.000 194.148,266.589 193.713,267.308 193.413 C 268.028 193.112,268.955 192.491,269.370 192.033 C 269.785 191.575,270.276 191.200,270.462 191.200 C 270.648 191.200,271.142 190.885,271.560 190.500 C 273.680 188.546,274.844 187.600,275.129 187.600 C 275.846 187.600,281.233 181.760,282.694 179.398 C 285.812 174.358,286.940 165.411,284.800 162.691 C 284.360 162.131,284.000 161.543,284.000 161.383 C 284.000 161.223,283.595 160.680,283.100 160.176 C 282.605 159.673,281.694 158.707,281.075 158.030 C 280.456 157.354,279.731 156.800,279.464 156.800 C 279.196 156.800,278.670 156.440,278.293 156.000 C 277.916 155.560,277.291 155.199,276.904 155.199 C 276.517 155.198,275.611 154.838,274.890 154.399 C 273.256 153.402,269.279 153.322,266.179 154.223 C 264.156 154.811,262.400 154.579,262.400 153.724 C 262.400 152.897,264.567 150.827,265.690 150.580 C 266.404 150.423,267.180 150.033,267.414 149.714 C 267.783 149.208,270.492 148.598,273.000 148.454 C 273.440 148.429,275.956 148.597,278.591 148.828 M167.400 151.870 C 167.400 153.051,162.838 155.193,160.310 155.198 C 159.710 155.199,158.630 155.559,157.910 155.999 C 157.189 156.438,156.150 156.803,155.600 156.811 C 155.050 156.819,153.700 157.268,152.600 157.809 C 151.500 158.350,150.403 158.794,150.162 158.796 C 149.921 158.798,149.398 159.160,149.000 159.600 C 148.602 160.040,147.860 160.400,147.352 160.400 C 146.844 160.400,145.783 160.967,144.994 161.659 C 143.082 163.338,143.241 164.352,145.519 165.021 C 146.464 165.299,147.814 165.792,148.519 166.116 C 149.223 166.440,150.970 166.827,152.400 166.977 C 153.830 167.126,156.620 167.526,158.600 167.864 C 162.975 168.612,188.576 168.288,194.577 167.408 C 196.544 167.120,198.383 166.972,198.665 167.080 C 199.614 167.444,219.117 166.348,222.273 165.754 C 223.993 165.430,227.020 164.988,229.000 164.773 C 230.980 164.558,234.130 164.123,236.000 163.807 C 237.870 163.490,240.914 163.109,242.765 162.958 C 244.615 162.808,246.595 162.442,247.165 162.145 C 249.396 160.981,255.830 161.759,254.748 163.063 C 254.503 163.358,254.139 163.600,253.940 163.600 C 253.740 163.600,252.447 164.477,251.067 165.548 C 249.686 166.620,248.161 167.622,247.678 167.775 C 247.195 167.928,246.800 168.204,246.800 168.388 C 246.800 168.794,244.588 169.600,243.472 169.600 C 243.027 169.600,242.363 169.871,241.997 170.203 C 241.631 170.534,240.067 170.964,238.523 171.158 C 236.978 171.352,235.348 171.707,234.901 171.946 C 233.919 172.472,227.945 173.192,224.532 173.197 C 223.175 173.199,221.015 173.449,219.732 173.754 C 218.450 174.059,215.420 174.523,213.000 174.785 C 210.580 175.048,207.970 175.419,207.200 175.610 C 203.194 176.603,153.802 176.784,150.597 175.818 C 149.499 175.487,146.980 175.117,145.000 174.997 C 140.719 174.737,135.951 174.011,135.420 173.538 C 135.211 173.352,134.381 173.200,133.575 173.200 C 130.996 173.200,128.064 172.454,126.510 171.403 C 125.680 170.841,124.423 170.013,123.718 169.562 C 120.050 167.216,123.876 160.928,129.775 159.606 C 130.839 159.367,132.159 158.818,132.709 158.386 C 133.258 157.954,133.960 157.600,134.268 157.600 C 134.576 157.600,135.241 157.330,135.745 156.999 C 136.249 156.669,137.728 156.203,139.031 155.964 C 140.334 155.725,141.696 155.265,142.059 154.940 C 142.421 154.616,143.771 154.248,145.059 154.123 C 146.346 153.997,147.670 153.666,148.000 153.387 C 148.349 153.091,150.439 152.756,152.994 152.585 C 155.411 152.424,158.201 152.065,159.194 151.788 C 161.482 151.150,167.400 151.209,167.400 151.870 M157.099 184.216 C 156.987 185.215,156.597 186.362,156.232 186.764 C 154.291 188.909,158.646 191.347,165.094 191.726 C 167.346 191.858,169.596 192.188,170.094 192.458 C 172.608 193.826,206.212 193.804,208.747 192.433 C 209.268 192.152,211.878 191.775,214.547 191.597 C 217.216 191.418,219.908 191.075,220.530 190.835 C 221.151 190.594,222.951 190.319,224.530 190.223 C 228.410 189.988,234.048 189.321,234.868 189.000 C 235.608 188.711,236.889 189.422,239.600 191.628 C 240.590 192.433,241.850 193.227,242.400 193.391 C 246.556 194.633,246.221 198.000,241.940 198.000 C 241.313 198.000,240.800 198.151,240.800 198.336 C 240.800 198.816,238.936 199.600,237.796 199.600 C 237.264 199.600,235.909 199.963,234.783 200.407 C 233.532 200.900,231.311 201.302,229.068 201.441 C 227.051 201.566,224.764 201.906,223.988 202.196 C 223.211 202.486,220.691 202.846,218.388 202.995 C 216.084 203.144,213.120 203.515,211.800 203.819 C 203.685 205.686,176.582 205.694,168.600 203.832 C 167.280 203.524,164.760 203.156,163.000 203.013 C 161.240 202.870,159.440 202.521,159.000 202.236 C 158.560 201.951,157.377 201.595,156.371 201.445 C 153.805 201.062,149.302 199.431,148.066 198.436 C 147.494 197.976,146.840 197.598,146.613 197.596 C 145.645 197.586,143.626 194.901,143.366 193.279 C 143.013 191.068,143.687 189.544,145.743 187.904 C 147.252 186.701,148.132 186.100,151.800 183.764 C 153.332 182.789,154.270 182.489,155.952 182.440 L 157.304 182.400 157.099 184.216 M163.200 213.205 C 163.200 213.868,162.988 214.750,162.730 215.164 C 162.048 216.256,164.014 217.884,166.400 218.203 C 167.390 218.335,169.370 218.692,170.800 218.995 C 176.902 220.290,206.793 220.569,212.546 219.384 C 214.336 219.015,217.510 218.481,219.600 218.198 C 221.690 217.915,224.246 217.354,225.280 216.952 C 227.136 216.230,227.176 216.232,228.288 217.054 C 228.908 217.512,229.862 218.028,230.408 218.199 C 230.953 218.370,231.829 218.845,232.354 219.255 C 232.879 219.665,233.619 220.000,234.000 220.000 C 234.381 220.000,235.121 220.326,235.646 220.724 C 236.171 221.123,237.387 221.676,238.349 221.955 C 240.174 222.483,242.165 224.106,241.913 224.861 C 241.613 225.762,237.303 228.000,235.868 228.000 C 235.384 228.000,234.322 228.357,233.509 228.793 C 232.695 229.229,231.258 229.704,230.315 229.848 C 229.372 229.991,228.420 230.249,228.200 230.420 C 227.491 230.971,220.681 232.863,218.000 233.254 C 216.570 233.462,214.140 233.940,212.600 234.316 C 208.570 235.300,185.705 235.296,179.800 234.311 C 177.600 233.944,174.450 233.531,172.800 233.394 C 171.150 233.256,169.387 232.877,168.882 232.551 C 168.377 232.225,167.027 231.856,165.882 231.732 C 164.737 231.608,163.237 231.186,162.549 230.796 C 161.862 230.405,160.755 229.966,160.091 229.820 C 159.427 229.674,158.566 229.205,158.179 228.777 C 157.793 228.350,157.099 227.993,156.638 227.983 C 153.445 227.920,149.429 220.366,151.600 218.507 C 152.040 218.130,152.400 217.614,152.400 217.359 C 152.400 216.764,154.699 215.007,156.000 214.609 C 156.550 214.440,157.247 214.099,157.550 213.851 C 158.229 213.294,161.549 212.073,162.500 212.031 C 163.019 212.008,163.200 212.312,163.200 213.205 M141.381 231.264 C 144.064 232.487,141.961 233.871,136.014 234.798 C 133.329 235.216,130.915 235.739,130.650 235.959 C 130.384 236.179,129.339 236.545,128.327 236.772 C 127.315 236.998,125.273 237.998,123.790 238.992 C 122.307 239.986,120.877 240.800,120.611 240.800 C 119.851 240.800,119.140 242.656,119.722 243.119 C 121.072 244.192,126.813 246.800,127.830 246.802 C 128.474 246.804,129.540 247.093,130.200 247.445 C 131.384 248.077,134.619 248.576,145.200 249.761 C 155.326 250.895,158.599 251.257,161.800 251.597 C 165.807 252.022,212.193 252.041,216.800 251.619 C 218.670 251.448,222.090 251.110,224.400 250.868 C 226.710 250.625,231.691 250.234,235.469 249.999 C 239.247 249.764,243.927 249.319,245.869 249.010 C 247.811 248.701,250.750 248.321,252.400 248.165 C 254.050 248.009,255.779 247.634,256.242 247.333 C 256.705 247.031,258.595 246.672,260.442 246.536 C 262.289 246.400,264.250 246.065,264.800 245.791 C 265.350 245.518,266.790 245.165,268.000 245.007 C 269.210 244.850,270.988 244.379,271.951 243.961 C 272.914 243.542,274.219 243.200,274.851 243.200 C 277.994 243.200,282.037 239.874,282.223 237.134 C 282.438 233.978,283.308 233.566,285.511 235.577 C 287.666 237.546,286.667 244.000,284.208 244.000 C 283.942 244.000,283.411 244.346,283.028 244.769 C 282.318 245.553,274.481 249.600,273.672 249.600 C 273.428 249.600,272.636 249.854,271.914 250.165 C 269.427 251.236,264.196 252.730,262.037 252.987 C 260.848 253.128,259.408 253.483,258.837 253.775 C 258.267 254.067,256.990 254.434,256.000 254.592 C 255.010 254.750,253.006 255.204,251.547 255.601 C 250.088 255.998,247.478 256.453,245.747 256.611 C 244.016 256.770,242.101 257.154,241.491 257.465 C 240.829 257.802,238.487 258.126,235.691 258.268 C 233.111 258.398,230.414 258.743,229.698 259.033 C 228.829 259.385,225.350 259.645,219.235 259.815 C 214.196 259.955,207.942 260.225,205.337 260.415 C 202.732 260.605,197.570 260.982,193.866 261.252 C 188.542 261.641,185.779 261.641,180.666 261.252 C 167.446 260.247,163.728 260.047,154.277 259.833 C 147.505 259.680,143.939 259.433,142.400 259.012 C 141.166 258.674,138.526 258.407,136.387 258.405 C 134.238 258.402,131.620 258.137,130.387 257.797 C 127.931 257.120,126.715 256.903,116.800 255.380 C 112.950 254.788,109.421 254.069,108.958 253.781 C 108.496 253.493,107.431 253.129,106.592 252.972 C 105.224 252.716,103.806 251.975,101.400 250.261 C 100.728 249.782,100.600 249.236,100.602 246.838 C 100.604 243.682,100.150 244.384,104.907 240.179 C 105.516 239.640,106.371 239.200,106.807 239.200 C 107.243 239.200,107.600 239.032,107.600 238.826 C 107.600 238.420,112.114 236.008,112.912 235.987 C 113.180 235.981,114.300 235.532,115.400 234.991 C 116.500 234.450,117.926 234.006,118.569 234.004 C 119.211 234.002,120.066 233.702,120.468 233.339 C 120.964 232.890,122.342 232.583,124.767 232.382 C 126.730 232.219,128.560 231.948,128.833 231.779 C 130.416 230.801,139.542 230.426,141.381 231.264 M298.792 250.149 C 298.784 251.141,296.586 254.800,295.999 254.800 C 295.780 254.800,295.600 255.040,295.600 255.332 C 295.600 256.103,290.332 260.400,289.388 260.400 C 289.112 260.400,288.786 260.660,288.664 260.978 C 288.542 261.296,287.758 261.682,286.921 261.836 C 286.084 261.989,285.287 262.290,285.149 262.502 C 284.704 263.188,279.063 265.253,277.000 265.486 C 275.900 265.610,274.548 265.939,273.995 266.217 C 273.442 266.495,272.092 266.856,270.995 267.018 C 269.898 267.181,268.319 267.552,267.487 267.844 C 266.655 268.135,264.405 268.578,262.487 268.829 C 260.569 269.079,258.280 269.525,257.400 269.819 C 256.520 270.114,254.386 270.472,252.658 270.616 C 250.929 270.759,248.877 271.143,248.096 271.469 C 247.211 271.839,244.255 272.196,240.239 272.420 C 236.697 272.616,232.900 272.888,231.800 273.023 C 230.700 273.158,226.470 273.352,222.400 273.455 C 218.330 273.557,211.220 273.766,206.600 273.920 C 196.631 274.252,177.218 273.849,176.151 273.288 C 175.738 273.071,171.980 272.678,167.800 272.416 C 163.620 272.154,159.300 271.694,158.200 271.394 C 157.100 271.093,154.400 270.728,152.200 270.583 C 150.000 270.438,147.840 270.096,147.400 269.822 C 146.960 269.549,145.456 269.208,144.058 269.065 C 142.660 268.921,141.040 268.545,140.458 268.229 C 139.876 267.914,138.801 267.376,138.069 267.035 C 136.470 266.290,136.487 265.200,138.105 264.631 C 139.288 264.215,148.267 265.007,149.000 265.592 C 149.220 265.768,150.930 266.032,152.800 266.180 C 154.670 266.328,160.160 266.793,165.000 267.214 C 175.314 268.111,211.051 268.170,217.000 267.299 C 218.760 267.042,223.080 266.548,226.600 266.202 C 230.120 265.856,234.630 265.309,236.623 264.987 C 238.616 264.664,241.511 264.400,243.056 264.400 C 244.602 264.400,246.842 264.222,248.033 264.006 C 249.225 263.789,252.000 263.326,254.200 262.977 C 256.400 262.628,259.773 261.996,261.696 261.571 C 263.618 261.147,265.714 260.800,266.352 260.800 C 266.990 260.800,268.297 260.444,269.256 260.009 C 270.215 259.574,271.485 259.214,272.079 259.209 C 272.672 259.204,274.004 258.750,275.038 258.200 C 276.073 257.650,277.390 257.200,277.965 257.200 C 278.541 257.200,279.639 256.868,280.406 256.462 C 281.173 256.057,282.418 255.604,283.174 255.458 C 283.929 255.311,284.829 254.939,285.174 254.632 C 285.518 254.326,286.546 253.876,287.459 253.633 C 288.371 253.390,289.221 252.923,289.346 252.596 C 289.472 252.268,289.897 252.000,290.291 252.000 C 291.073 252.000,294.858 250.106,295.234 249.527 C 296.132 248.144,298.806 248.611,298.792 250.149 M121.566 289.782 C 122.426 290.227,122.737 290.723,122.882 291.882 C 123.244 294.783,122.847 364.590,122.449 368.000 C 122.230 369.870,121.868 373.046,121.643 375.059 C 121.242 378.646,120.842 379.751,118.077 384.923 C 117.274 386.425,112.491 391.585,111.893 391.595 C 111.723 391.598,110.553 392.410,109.293 393.400 C 108.032 394.390,106.779 395.200,106.510 395.200 C 106.240 395.200,105.430 395.559,104.710 395.999 C 101.998 397.652,101.061 397.282,97.891 393.312 C 94.827 389.475,94.611 388.385,96.656 387.082 C 99.826 385.064,103.514 380.876,105.181 377.400 C 107.054 373.497,107.721 367.351,107.397 357.000 C 107.145 348.938,107.110 334.506,107.290 313.200 C 107.350 306.050,107.241 298.575,107.046 296.589 C 106.680 292.852,107.401 290.067,108.889 289.468 C 110.165 288.956,120.460 289.211,121.566 289.782 M166.849 311.740 C 172.719 313.601,178.364 318.090,178.393 320.920 C 178.397 321.316,178.709 322.216,179.086 322.920 C 179.794 324.240,180.253 338.979,180.361 363.878 C 180.410 375.143,180.521 374.926,174.624 375.139 C 169.977 375.307,169.029 374.867,168.319 372.214 C 167.671 369.789,166.822 369.664,163.818 371.549 C 157.091 375.768,154.654 376.329,146.000 375.650 C 139.615 375.150,132.800 371.876,132.800 369.309 C 132.800 369.083,132.546 368.688,132.237 368.430 C 128.146 365.036,129.231 350.769,133.937 346.063 C 134.357 345.643,134.768 345.143,134.850 344.950 C 136.562 340.955,148.018 336.879,159.910 336.034 C 165.354 335.647,165.018 335.957,164.918 331.409 C 164.740 323.267,159.137 319.832,149.468 321.938 C 134.715 325.152,134.400 325.149,134.400 321.812 C 134.400 321.240,134.118 320.342,133.774 319.817 C 132.246 317.484,133.538 314.661,136.364 314.155 C 137.154 314.014,138.070 313.666,138.400 313.382 C 141.521 310.695,160.161 309.619,166.849 311.740 M282.800 311.793 C 284.450 312.395,286.070 313.135,286.400 313.436 C 287.740 314.662,289.286 315.964,289.535 316.078 C 290.192 316.380,293.156 321.160,293.579 322.600 C 294.379 325.325,295.066 369.681,294.347 372.194 C 292.999 376.905,282.000 376.356,282.000 371.578 C 282.000 369.907,280.866 370.031,278.213 371.990 C 276.935 372.935,275.398 373.687,274.430 373.842 C 273.533 373.985,272.800 374.237,272.800 374.403 C 272.800 375.369,269.898 375.800,263.400 375.800 L 256.600 375.800 253.248 374.000 C 249.798 372.148,247.516 370.132,246.324 367.884 C 245.950 367.178,245.409 366.150,245.123 365.600 C 244.037 363.516,244.417 352.009,245.632 350.165 C 246.200 349.304,247.176 347.790,247.803 346.800 C 250.031 343.277,255.904 338.807,258.314 338.801 C 258.597 338.801,259.239 338.531,259.740 338.202 C 260.242 337.874,261.540 337.503,262.626 337.378 C 263.712 337.253,266.284 336.867,268.343 336.520 C 270.819 336.103,273.094 335.975,275.063 336.142 C 280.003 336.559,281.164 334.353,279.443 327.819 C 277.784 321.520,268.026 319.764,255.139 323.446 C 249.901 324.942,249.093 324.549,248.244 320.094 C 247.587 316.646,248.085 314.967,249.875 314.592 C 250.494 314.463,252.085 313.935,253.411 313.418 C 254.737 312.902,256.897 312.350,258.211 312.191 C 259.525 312.031,260.807 311.737,261.059 311.535 C 262.943 310.035,278.491 310.219,282.800 311.793 M199.514 311.879 C 200.111 312.252,200.652 312.590,200.716 312.628 C 201.007 312.805,202.545 317.219,203.006 319.200 C 203.458 321.146,204.626 324.259,205.557 326.000 C 205.734 326.330,206.106 327.590,206.384 328.800 C 206.662 330.010,207.230 331.740,207.645 332.644 C 208.060 333.548,208.400 334.769,208.400 335.357 C 208.400 335.945,208.693 337.095,209.051 337.913 C 210.147 340.417,212.375 348.168,213.424 353.127 L 214.127 356.454 215.039 355.527 C 215.586 354.970,216.284 353.323,216.787 351.400 C 218.189 346.045,219.134 342.329,219.788 339.600 C 220.131 338.170,220.657 336.550,220.957 336.000 C 221.258 335.450,221.630 333.782,221.784 332.294 C 221.939 330.805,222.413 328.598,222.837 327.390 C 223.262 326.182,223.976 322.809,224.425 319.896 C 225.540 312.648,225.439 312.965,226.947 312.033 C 228.940 310.801,238.377 310.777,239.600 312.000 C 240.799 313.199,240.623 316.127,238.977 322.400 C 238.198 325.370,237.319 328.820,237.025 330.066 C 236.730 331.312,236.374 332.518,236.234 332.746 C 236.093 332.973,235.625 334.813,235.193 336.834 C 234.761 338.855,234.246 340.710,234.050 340.955 C 233.853 341.200,233.571 342.030,233.424 342.800 C 233.276 343.570,232.826 345.190,232.424 346.400 C 232.022 347.610,231.508 349.500,231.282 350.600 C 230.749 353.195,229.614 356.439,228.973 357.200 C 228.695 357.530,228.343 358.520,228.190 359.400 C 228.037 360.280,227.571 361.595,227.156 362.323 C 226.740 363.050,226.400 363.848,226.400 364.095 C 226.400 364.342,225.403 366.571,224.184 369.049 C 221.140 375.238,221.212 375.200,212.728 375.200 L 206.150 375.200 205.157 374.100 C 203.812 372.609,202.954 370.593,202.371 367.549 C 202.102 366.147,201.549 364.332,201.141 363.516 C 200.734 362.700,200.400 361.835,200.400 361.594 C 200.400 361.353,200.060 360.401,199.644 359.478 C 199.229 358.555,198.759 356.990,198.601 356.000 C 198.443 355.010,198.061 353.914,197.754 353.565 C 197.446 353.216,197.036 351.686,196.843 350.165 C 196.650 348.644,196.213 346.770,195.872 346.000 C 195.530 345.230,194.773 342.890,194.188 340.800 C 193.604 338.710,192.893 336.452,192.608 335.781 C 192.323 335.111,191.871 333.491,191.602 332.181 C 191.333 330.872,190.939 329.585,190.726 329.323 C 190.514 329.060,190.089 327.980,189.783 326.923 C 189.477 325.865,188.501 322.857,187.614 320.238 C 184.790 311.907,185.233 311.200,193.268 311.200 C 197.428 311.200,198.639 311.332,199.514 311.879 M304.900 312.869 C 307.134 314.015,305.435 317.183,302.560 317.233 C 296.245 317.345,293.382 315.850,294.807 313.187 C 295.270 312.321,303.337 312.067,304.900 312.869 M274.200 346.030 C 273.540 346.228,271.470 346.589,269.600 346.832 C 263.969 347.563,260.983 349.305,259.361 352.806 C 255.321 361.526,265.889 368.725,274.319 362.997 C 275.126 362.449,275.930 362.000,276.106 362.000 C 278.269 362.000,279.491 358.807,279.757 352.459 C 280.043 345.642,279.104 344.555,274.200 346.030 M158.800 346.243 C 158.250 346.339,156.180 346.700,154.200 347.045 C 146.809 348.330,144.505 350.670,144.688 356.701 C 144.918 364.224,153.406 367.636,160.282 362.970 C 161.068 362.436,161.912 361.994,162.156 361.987 C 164.956 361.908,166.239 356.729,165.214 349.642 C 164.726 346.268,163.219 345.469,158.800 346.243 " stroke="none" fill="#f4f4f4" fill-rule="evenodd"></path><path id="path1" d="M271.800 149.991 C 270.920 150.173,269.480 150.601,268.600 150.943 C 267.720 151.285,266.580 151.573,266.067 151.582 C 265.553 151.592,265.200 151.801,265.283 152.048 C 265.379 152.338,267.044 152.518,270.016 152.560 C 283.928 152.756,291.385 165.284,285.012 177.754 C 282.285 183.091,276.641 188.795,269.200 193.734 C 267.330 194.976,265.530 196.231,265.200 196.525 C 264.870 196.819,264.028 197.287,263.329 197.566 C 262.630 197.845,261.967 198.310,261.856 198.599 C 261.745 198.888,261.102 199.246,260.427 199.394 C 259.752 199.542,259.200 199.829,259.200 200.032 C 259.200 200.591,261.787 200.471,263.068 199.852 C 263.690 199.551,265.730 198.805,267.600 198.193 C 293.378 189.765,305.476 169.008,292.255 155.894 C 287.705 151.381,278.265 148.657,271.800 149.991 M157.600 153.119 C 152.602 153.589,142.297 156.185,136.600 158.409 C 134.840 159.096,132.773 159.845,132.006 160.074 C 131.240 160.302,130.180 160.829,129.652 161.245 C 129.124 161.660,128.479 162.000,128.218 162.000 C 127.642 162.000,123.530 165.025,123.127 165.745 C 122.592 166.701,123.294 168.032,124.751 168.822 C 125.548 169.255,126.470 169.775,126.800 169.979 C 127.906 170.663,134.035 172.400,135.341 172.400 C 136.051 172.400,137.615 172.652,138.816 172.959 C 148.621 175.470,198.687 175.634,214.800 173.208 C 217.550 172.794,221.330 172.351,223.200 172.224 C 225.070 172.096,227.860 171.730,229.400 171.410 C 230.940 171.090,233.640 170.549,235.400 170.208 C 243.498 168.638,243.992 168.464,249.097 165.383 C 251.853 163.720,249.005 163.144,243.308 164.212 C 241.378 164.574,237.640 165.108,235.000 165.398 C 232.360 165.688,228.490 166.210,226.400 166.558 C 224.310 166.906,219.630 167.370,216.000 167.589 C 212.370 167.809,207.780 168.180,205.800 168.415 C 203.718 168.661,192.165 168.875,178.400 168.920 L 154.600 169.000 149.831 167.873 C 144.907 166.709,142.033 165.548,141.956 164.692 C 141.838 163.387,142.134 162.133,142.711 161.487 C 143.444 160.665,151.612 156.658,153.400 156.242 C 154.060 156.088,155.500 155.619,156.600 155.200 C 157.700 154.780,159.293 154.327,160.141 154.193 C 160.988 154.058,161.598 153.864,161.495 153.762 C 161.085 153.352,158.921 152.995,157.600 153.119 M152.400 185.001 C 147.622 186.672,143.257 191.465,144.462 193.716 C 145.553 195.755,150.869 199.199,152.926 199.200 C 153.326 199.200,154.022 199.398,154.474 199.639 C 156.093 200.506,164.269 202.305,167.800 202.572 C 169.780 202.721,173.020 203.103,175.000 203.420 C 179.169 204.088,196.629 204.190,201.800 203.578 C 203.560 203.369,208.060 202.942,211.800 202.629 C 218.128 202.100,220.598 201.727,228.400 200.127 C 230.050 199.789,232.835 199.266,234.588 198.964 C 236.341 198.663,238.460 198.143,239.296 197.808 C 240.132 197.474,241.308 197.197,241.908 197.194 C 244.886 197.177,244.140 195.632,239.980 193.200 C 239.040 192.650,237.743 191.765,237.098 191.233 C 235.674 190.059,233.166 190.042,228.696 191.177 C 227.103 191.581,224.270 192.030,222.400 192.174 C 220.530 192.317,217.470 192.689,215.600 193.000 C 212.537 193.509,206.153 193.985,193.400 194.657 C 190.980 194.785,183.870 194.596,177.600 194.238 C 158.172 193.128,153.982 191.815,154.547 187.015 C 154.836 184.549,154.525 184.257,152.400 185.001 M158.400 214.645 C 151.815 217.683,150.414 221.307,154.496 224.742 C 155.152 225.294,155.927 225.984,156.219 226.276 C 162.487 232.544,200.895 235.982,217.732 231.782 C 219.015 231.462,220.545 231.192,221.132 231.182 C 221.720 231.173,222.920 230.891,223.800 230.557 C 224.680 230.223,226.930 229.532,228.800 229.021 C 235.931 227.075,240.000 225.552,240.000 224.829 C 240.000 224.645,239.055 224.039,237.900 223.482 C 234.540 221.860,230.505 219.859,229.017 219.077 C 228.260 218.679,227.316 218.347,226.920 218.339 C 225.400 218.308,218.954 219.249,218.037 219.635 C 214.808 220.994,195.395 222.210,186.600 221.604 C 165.548 220.151,161.468 219.055,161.413 214.837 C 161.395 213.505,160.934 213.475,158.400 214.645 M132.600 232.177 C 131.500 232.465,129.610 232.823,128.400 232.971 C 125.800 233.291,119.133 235.013,117.340 235.827 C 116.646 236.142,115.836 236.408,115.540 236.418 C 112.566 236.519,101.949 243.870,101.354 246.240 C 100.452 249.834,106.310 252.825,116.600 254.024 C 118.800 254.281,121.486 254.740,122.570 255.044 C 123.653 255.349,126.623 255.791,129.170 256.027 C 131.716 256.263,134.344 256.624,135.010 256.829 C 135.675 257.034,140.445 257.468,145.610 257.792 C 150.774 258.116,156.800 258.601,159.000 258.869 C 164.653 259.557,208.717 259.569,214.200 258.884 C 216.400 258.609,221.080 258.200,224.600 257.974 C 228.120 257.749,232.170 257.408,233.600 257.216 C 240.911 256.233,256.475 253.448,257.217 252.989 C 257.425 252.861,258.720 252.578,260.097 252.361 C 261.474 252.143,264.726 251.253,267.324 250.383 C 269.922 249.512,272.228 248.800,272.449 248.800 C 273.370 248.800,281.505 244.822,282.468 243.900 C 282.871 243.515,283.356 243.200,283.546 243.200 C 284.223 243.200,286.000 240.136,285.994 238.978 C 285.982 236.744,283.801 235.550,283.361 237.537 C 282.896 239.639,282.776 239.866,281.475 241.127 C 280.115 242.446,274.541 244.995,272.025 245.449 C 271.241 245.591,270.149 245.935,269.598 246.213 C 269.047 246.492,266.641 247.010,264.251 247.365 C 261.862 247.720,259.782 248.088,259.629 248.182 C 259.476 248.277,257.112 248.640,254.376 248.989 C 251.639 249.338,248.860 249.806,248.200 250.030 C 247.540 250.253,242.770 250.701,237.600 251.025 C 232.430 251.349,227.300 251.792,226.200 252.009 C 219.423 253.347,159.230 253.205,151.362 251.833 C 149.623 251.529,146.400 251.154,144.200 250.998 C 142.000 250.843,139.030 250.449,137.600 250.123 C 136.170 249.797,133.740 249.299,132.200 249.017 C 123.155 247.362,117.040 244.396,117.790 242.030 C 118.534 239.687,125.197 236.158,132.000 234.505 C 133.430 234.158,134.780 233.652,135.000 233.381 C 135.220 233.111,136.108 232.765,136.972 232.613 C 138.125 232.410,138.392 232.240,137.972 231.974 C 137.178 231.472,134.972 231.555,132.600 232.177 M294.980 251.176 C 294.317 251.833,285.193 256.400,284.545 256.400 C 284.203 256.400,283.446 256.654,282.862 256.964 C 280.843 258.035,272.548 260.532,268.200 261.377 C 266.660 261.676,264.230 262.203,262.800 262.547 C 257.361 263.857,253.670 264.512,249.913 264.835 C 247.775 265.019,244.535 265.445,242.713 265.783 C 240.891 266.121,236.430 266.674,232.800 267.014 C 229.170 267.353,225.390 267.816,224.400 268.043 C 218.696 269.347,159.691 268.821,152.265 267.400 C 148.808 266.738,144.900 266.622,144.057 267.156 C 143.229 267.681,144.000 267.969,147.382 268.398 C 149.054 268.610,150.781 268.976,151.221 269.211 C 151.662 269.447,154.942 269.889,158.511 270.194 C 162.080 270.498,166.260 270.934,167.800 271.163 C 178.852 272.801,223.910 272.825,237.200 271.200 C 239.070 270.971,243.210 270.517,246.400 270.191 C 252.460 269.572,256.685 268.887,262.400 267.595 C 264.270 267.173,267.060 266.619,268.600 266.364 C 270.140 266.110,271.580 265.760,271.800 265.587 C 272.020 265.413,272.920 265.155,273.800 265.013 C 275.383 264.758,279.881 263.239,282.200 262.176 C 282.860 261.874,284.120 261.386,285.000 261.093 C 289.152 259.710,296.800 253.405,296.800 251.364 C 296.800 250.729,295.561 250.601,294.980 251.176 " stroke="none" fill="#6289a2" fill-rule="evenodd"></path><path id="path2" d="M228.251 8.015 C 228.147 8.337,227.975 12.380,227.868 17.000 C 227.483 33.680,220.497 44.640,200.000 60.715 C 194.534 65.002,192.317 66.784,189.447 69.200 C 188.271 70.190,186.163 71.900,184.763 73.000 C 181.852 75.288,173.088 83.922,171.598 85.971 C 171.049 86.726,170.196 87.830,169.702 88.426 C 169.209 89.022,168.045 91.105,167.116 93.055 L 165.427 96.600 165.413 102.000 C 165.401 106.996,165.484 107.609,166.519 110.200 C 168.516 115.196,168.976 116.145,170.586 118.591 C 172.465 121.444,172.725 121.841,173.889 123.632 C 177.384 129.010,194.457 146.503,195.344 145.616 C 195.740 145.220,195.257 143.718,194.402 142.685 C 194.027 142.232,192.897 140.561,186.789 131.427 C 185.475 129.462,184.400 127.639,184.400 127.376 C 184.400 127.113,184.121 126.667,183.781 126.384 C 183.440 126.102,182.616 124.684,181.949 123.235 C 181.282 121.786,180.593 120.324,180.419 119.986 C 177.100 113.575,177.103 103.996,180.424 96.956 C 180.851 96.052,181.200 95.172,181.200 95.001 C 181.200 93.088,189.834 82.935,195.800 77.832 C 198.000 75.950,200.527 73.786,201.417 73.022 C 202.306 72.259,203.751 71.114,204.629 70.478 C 206.893 68.838,217.684 58.006,218.714 56.339 C 219.187 55.574,219.950 54.607,220.410 54.191 C 220.869 53.775,222.350 51.807,223.699 49.817 C 225.048 47.828,226.388 45.962,226.676 45.671 C 226.964 45.381,227.200 44.945,227.200 44.703 C 227.200 44.304,228.890 40.495,230.174 38.000 C 232.805 32.889,233.548 19.723,231.528 14.000 C 230.229 10.320,228.517 7.192,228.251 8.015 M248.780 62.815 C 248.227 62.963,247.420 63.274,246.987 63.507 C 246.554 63.739,245.300 64.235,244.200 64.608 C 239.312 66.269,229.635 70.879,225.749 73.400 C 224.392 74.280,222.229 75.671,220.941 76.490 C 212.364 81.951,204.714 90.293,202.782 96.291 C 202.514 97.121,202.158 97.980,201.989 98.200 C 200.545 100.081,200.577 109.922,202.042 114.358 C 202.943 117.088,206.600 124.829,207.523 125.959 C 208.693 127.393,214.617 135.301,214.846 135.734 C 217.887 141.499,218.355 146.480,216.272 150.885 C 215.682 152.131,215.200 153.527,215.200 153.988 C 215.200 154.448,214.930 154.929,214.600 155.055 C 214.270 155.182,214.000 155.553,214.000 155.881 C 214.000 156.544,217.278 154.887,218.400 153.658 C 218.730 153.296,219.620 152.487,220.378 151.860 C 228.186 145.402,231.547 134.914,228.249 127.302 C 227.701 126.036,227.151 124.640,227.027 124.200 C 226.903 123.760,226.273 122.837,225.627 122.150 C 221.014 117.240,215.358 106.842,214.958 102.534 C 214.125 93.571,221.100 84.085,236.400 73.377 C 238.710 71.760,241.359 69.888,242.286 69.216 C 243.214 68.545,244.474 67.777,245.086 67.510 C 245.699 67.242,246.589 66.658,247.065 66.212 C 248.329 65.026,249.714 63.981,250.775 63.413 L 251.708 62.914 250.747 62.730 C 250.218 62.629,249.333 62.667,248.780 62.815 M195.878 146.256 C 195.558 146.575,195.919 147.200,196.424 147.200 C 196.631 147.200,196.800 146.930,196.800 146.600 C 196.800 145.981,196.328 145.805,195.878 146.256 M110.000 291.318 L 109.000 291.823 108.800 332.812 L 108.600 373.800 107.683 375.957 C 105.596 380.869,102.404 384.888,98.702 387.263 C 97.377 388.113,96.800 388.751,96.800 389.365 C 96.800 390.240,101.076 395.200,101.830 395.200 C 105.616 395.200,115.405 387.244,117.746 382.265 C 121.010 375.323,121.181 372.610,121.192 327.789 C 121.199 296.559,121.130 292.477,120.577 291.689 C 119.835 290.629,111.911 290.351,110.000 291.318 M148.200 312.578 C 139.095 314.133,134.541 316.134,134.967 318.392 C 135.072 318.946,135.275 320.178,135.418 321.128 C 135.753 323.340,136.286 323.512,139.542 322.458 C 156.813 316.867,166.909 320.501,166.978 332.335 C 167.008 337.478,167.128 337.399,158.827 337.726 C 148.157 338.146,138.422 341.835,135.095 346.719 C 128.196 356.847,130.994 369.776,140.875 373.423 C 145.359 375.079,153.932 375.347,155.989 373.897 C 156.533 373.514,157.256 373.200,157.595 373.200 C 158.417 373.200,160.810 371.919,164.075 369.731 C 167.610 367.362,168.421 367.464,169.062 370.358 C 169.624 372.897,169.786 373.027,172.815 373.370 C 175.186 373.638,177.011 373.396,177.900 372.696 C 178.788 371.996,178.584 328.322,177.673 324.184 C 176.440 318.582,171.632 313.928,166.097 312.978 C 165.274 312.837,163.712 312.469,162.627 312.161 C 159.854 311.373,154.318 311.533,148.200 312.578 M266.000 312.008 C 265.230 312.217,263.250 312.584,261.600 312.822 C 258.583 313.258,252.591 315.067,250.385 316.208 C 248.996 316.926,248.872 317.933,249.858 320.492 C 250.935 323.288,251.237 323.455,253.475 322.493 C 265.666 317.255,279.959 320.241,281.050 328.254 C 282.218 336.823,281.772 337.596,275.651 337.612 C 253.997 337.670,241.483 348.955,246.550 363.853 C 247.979 368.055,248.583 368.990,251.097 370.887 C 258.923 376.794,268.032 376.310,279.200 369.394 C 282.349 367.443,282.789 367.603,283.412 370.921 C 283.869 373.357,287.839 374.451,291.540 373.161 L 292.800 372.722 292.800 349.825 C 292.800 319.912,292.667 319.333,284.732 314.612 C 280.750 312.243,270.420 310.807,266.000 312.008 M188.058 313.228 C 187.372 313.503,187.193 313.794,187.400 314.303 C 187.556 314.686,188.210 316.710,188.853 318.800 C 189.496 320.890,190.735 324.784,191.605 327.453 C 192.476 330.123,193.391 333.273,193.638 334.453 C 193.886 335.634,194.409 337.410,194.802 338.400 C 195.785 340.879,197.047 344.930,197.730 347.800 C 198.044 349.120,198.856 351.820,199.533 353.800 C 200.210 355.780,201.232 359.020,201.804 361.000 C 202.376 362.980,203.115 365.410,203.445 366.400 C 203.776 367.390,204.333 369.153,204.684 370.319 C 205.545 373.179,205.843 373.281,213.279 373.265 C 220.642 373.248,221.292 373.029,222.024 370.312 C 222.274 369.382,222.817 367.987,223.230 367.211 C 223.642 366.435,224.279 365.080,224.643 364.200 C 225.008 363.320,225.633 361.880,226.032 361.000 C 226.432 360.120,227.675 356.610,228.796 353.200 C 231.743 344.235,232.284 342.447,232.767 340.080 C 233.005 338.914,233.447 337.474,233.748 336.880 C 234.050 336.286,234.427 334.902,234.587 333.805 C 234.747 332.708,235.101 331.358,235.375 330.805 C 235.649 330.252,236.098 328.450,236.374 326.800 C 236.650 325.150,237.412 321.573,238.069 318.851 C 239.536 312.769,239.740 313.038,233.520 312.865 C 226.876 312.680,227.042 312.556,226.180 318.348 C 225.800 320.907,224.966 325.250,224.327 328.000 C 223.688 330.750,222.923 334.280,222.626 335.845 C 222.329 337.409,221.726 339.839,221.286 341.245 C 219.554 346.778,218.789 349.419,218.794 349.849 C 218.825 352.238,214.688 360.848,213.892 360.052 C 213.453 359.613,211.625 353.328,211.607 352.200 C 211.592 351.224,209.424 343.537,208.617 341.600 C 208.296 340.830,207.474 338.130,206.791 335.600 C 206.107 333.070,205.305 330.370,205.008 329.600 C 204.376 327.960,203.322 324.787,202.750 322.800 C 200.961 316.594,199.762 313.620,198.889 313.222 C 197.751 312.704,189.356 312.708,188.058 313.228 M166.481 345.520 C 166.865 345.904,167.000 347.793,167.000 352.793 L 167.000 359.546 165.802 360.797 C 161.228 365.574,152.080 367.802,147.727 365.200 C 140.181 360.689,141.764 348.865,150.283 346.113 C 154.442 344.769,165.333 344.370,166.481 345.520 M280.611 345.359 C 281.433 345.959,281.604 357.706,280.820 359.733 C 279.502 363.142,271.233 366.724,265.688 366.288 C 256.024 365.527,253.977 351.370,262.904 347.038 C 267.327 344.891,278.520 343.830,280.611 345.359 " stroke="none" fill="#e17515" fill-rule="evenodd"></path><path id="path3" d="M226.264 5.777 C 226.142 6.094,226.213 6.948,226.421 7.674 C 227.368 10.975,226.880 22.464,225.641 26.048 C 223.765 31.476,223.169 32.965,222.616 33.600 C 222.329 33.930,221.960 34.640,221.796 35.177 C 221.632 35.714,220.710 37.235,219.749 38.557 C 218.787 39.879,218.000 41.093,218.000 41.257 C 218.000 41.420,217.235 42.354,216.300 43.333 C 215.365 44.312,213.520 46.337,212.200 47.832 C 209.269 51.154,208.554 51.857,205.000 54.918 C 203.460 56.244,202.110 57.444,202.000 57.584 C 201.890 57.724,200.929 58.342,199.865 58.957 C 198.800 59.572,197.553 60.508,197.093 61.038 C 196.632 61.567,196.063 62.001,195.828 62.002 C 195.593 62.003,194.783 62.582,194.028 63.289 C 193.273 63.997,191.383 65.554,189.828 66.750 C 188.273 67.947,186.611 69.302,186.135 69.763 C 185.659 70.223,184.772 70.960,184.164 71.400 C 183.556 71.840,181.397 73.820,179.366 75.800 C 177.336 77.780,174.892 80.134,173.937 81.030 C 171.470 83.346,166.882 89.333,166.549 90.671 C 166.394 91.292,166.029 91.980,165.738 92.200 C 164.083 93.452,163.090 102.490,164.204 106.164 C 164.532 107.244,164.800 108.582,164.800 109.137 C 164.800 109.693,165.179 110.969,165.642 111.974 C 167.554 116.119,169.402 119.600,169.692 119.600 C 169.861 119.600,170.005 119.825,170.011 120.100 C 170.017 120.375,170.557 121.307,171.211 122.171 C 171.865 123.035,172.400 123.945,172.400 124.192 C 172.400 125.220,184.533 138.185,193.416 146.650 C 196.698 149.778,198.385 150.910,199.000 150.400 C 199.758 149.771,199.772 148.453,199.030 147.631 C 198.717 147.284,197.909 145.952,197.236 144.670 C 196.562 143.389,195.641 141.859,195.189 141.270 C 194.178 139.955,192.431 137.423,188.932 132.200 C 187.458 130.000,186.105 128.140,185.926 128.067 C 185.747 127.993,185.600 127.777,185.600 127.586 C 185.600 127.395,184.822 125.565,183.872 123.520 C 181.053 117.452,180.401 115.514,180.002 112.017 C 179.318 106.022,180.604 98.692,183.021 94.800 C 183.773 93.590,184.703 91.997,185.087 91.259 C 186.607 88.347,195.019 79.823,199.847 76.302 C 200.533 75.802,202.063 74.526,203.247 73.468 C 204.431 72.409,206.268 70.791,207.329 69.871 C 209.748 67.776,215.226 62.366,217.600 59.727 C 220.403 56.611,226.000 49.475,226.000 49.016 C 226.000 48.868,226.450 48.157,227.000 47.436 C 227.550 46.714,228.000 45.851,228.000 45.516 C 228.000 45.182,228.358 44.453,228.795 43.898 C 229.232 43.342,230.141 41.473,230.816 39.744 C 231.491 38.015,232.213 36.240,232.421 35.800 C 232.760 35.083,233.444 31.996,234.416 26.800 C 234.933 24.032,234.859 20.609,234.240 18.714 C 233.932 17.771,233.557 16.116,233.406 15.034 C 233.255 13.953,232.787 12.426,232.366 11.640 C 231.945 10.855,231.596 9.939,231.590 9.606 C 231.551 7.214,226.975 3.925,226.264 5.777 M231.528 14.000 C 233.548 19.723,232.805 32.889,230.174 38.000 C 228.890 40.495,227.200 44.304,227.200 44.703 C 227.200 44.945,226.964 45.381,226.676 45.671 C 226.388 45.962,225.048 47.828,223.699 49.817 C 222.350 51.807,220.869 53.775,220.410 54.191 C 219.950 54.607,219.187 55.574,218.714 56.339 C 217.684 58.006,206.893 68.838,204.629 70.478 C 203.751 71.114,202.306 72.259,201.417 73.022 C 200.527 73.786,198.000 75.950,195.800 77.832 C 189.834 82.935,181.200 93.088,181.200 95.001 C 181.200 95.172,180.851 96.052,180.424 96.956 C 177.103 103.996,177.100 113.575,180.419 119.986 C 180.593 120.324,181.282 121.786,181.949 123.235 C 182.616 124.684,183.440 126.102,183.781 126.384 C 184.121 126.667,184.400 127.113,184.400 127.376 C 184.400 127.639,185.475 129.462,186.789 131.427 C 192.897 140.561,194.027 142.232,194.402 142.685 C 195.257 143.718,195.740 145.220,195.344 145.616 C 194.457 146.503,177.384 129.010,173.889 123.632 C 172.725 121.841,172.465 121.444,170.586 118.591 C 168.976 116.145,168.516 115.196,166.519 110.200 C 165.484 107.609,165.401 106.996,165.413 102.000 L 165.427 96.600 167.116 93.055 C 168.045 91.105,169.209 89.022,169.702 88.426 C 170.196 87.830,171.049 86.726,171.598 85.971 C 173.088 83.922,181.852 75.288,184.763 73.000 C 186.163 71.900,188.271 70.190,189.447 69.200 C 192.317 66.784,194.534 65.002,200.000 60.715 C 220.497 44.640,227.483 33.680,227.868 17.000 C 228.123 5.961,228.564 5.600,231.528 14.000 M253.411 60.054 C 252.318 60.222,250.698 60.625,249.811 60.949 C 248.925 61.273,247.570 61.667,246.800 61.823 C 246.030 61.979,244.773 62.443,244.006 62.853 C 243.239 63.264,242.339 63.601,242.006 63.601 C 241.673 63.602,240.811 63.962,240.090 64.401 C 239.370 64.841,238.539 65.200,238.244 65.200 C 237.949 65.200,237.269 65.545,236.733 65.967 C 236.196 66.389,235.090 66.859,234.275 67.012 C 233.460 67.165,232.390 67.597,231.897 67.972 C 231.403 68.346,230.190 69.063,229.200 69.564 C 228.210 70.064,226.443 71.133,225.274 71.937 C 224.105 72.742,222.665 73.673,222.074 74.008 C 219.694 75.354,215.367 78.303,214.851 78.931 C 214.549 79.299,214.081 79.600,213.811 79.600 C 212.816 79.600,204.013 89.510,204.004 90.642 C 204.002 90.884,203.550 91.569,203.000 92.162 C 202.450 92.756,202.000 93.637,202.001 94.121 C 202.002 94.604,201.651 95.720,201.222 96.600 C 198.707 101.757,198.328 107.980,200.189 113.568 C 200.780 115.341,201.429 116.894,201.631 117.019 C 201.834 117.145,202.000 117.536,202.000 117.889 C 202.000 118.748,205.798 126.190,207.262 128.200 C 207.903 129.080,208.852 130.430,209.371 131.200 C 209.889 131.970,210.650 132.960,211.061 133.400 C 216.318 139.033,217.109 148.418,212.865 154.800 C 210.215 158.784,209.924 159.600,211.151 159.600 C 212.122 159.600,214.669 158.536,215.006 157.990 C 215.150 157.758,215.984 157.115,216.860 156.562 C 217.736 156.009,218.962 155.072,219.585 154.478 C 220.208 153.885,221.551 152.620,222.571 151.667 C 230.840 143.933,233.157 134.377,228.941 125.394 C 228.424 124.291,228.000 123.237,228.000 123.052 C 228.000 122.867,227.551 122.150,227.002 121.458 C 226.453 120.766,225.598 119.681,225.102 119.047 C 224.606 118.413,223.922 117.603,223.582 117.247 C 223.242 116.891,222.744 116.150,222.475 115.600 C 222.206 115.050,221.447 113.880,220.788 113.000 C 217.553 108.683,215.333 101.250,216.566 98.866 C 216.877 98.265,217.257 97.059,217.411 96.186 C 217.564 95.314,217.980 94.150,218.335 93.600 C 218.690 93.050,219.317 91.983,219.729 91.229 C 220.921 89.046,228.670 80.405,229.444 80.396 C 229.640 80.393,230.520 79.715,231.400 78.887 C 232.868 77.507,234.270 76.435,235.959 75.400 C 236.318 75.180,237.329 74.567,238.206 74.039 C 239.083 73.510,239.980 72.865,240.200 72.606 C 240.420 72.346,241.070 71.879,241.645 71.567 C 243.509 70.556,247.601 67.840,249.726 66.202 C 252.692 63.918,254.202 62.917,255.123 62.625 C 258.252 61.631,256.850 59.526,253.411 60.054 M250.775 63.413 C 249.714 63.981,248.329 65.026,247.065 66.212 C 246.589 66.658,245.699 67.242,245.086 67.510 C 244.474 67.777,243.214 68.545,242.286 69.216 C 241.359 69.888,238.710 71.760,236.400 73.377 C 221.100 84.085,214.125 93.571,214.958 102.534 C 215.358 106.842,221.014 117.240,225.627 122.150 C 226.273 122.837,226.903 123.760,227.027 124.200 C 227.151 124.640,227.701 126.036,228.249 127.302 C 231.547 134.914,228.186 145.402,220.378 151.860 C 219.620 152.487,218.730 153.296,218.400 153.658 C 217.278 154.887,214.000 156.544,214.000 155.881 C 214.000 155.553,214.270 155.182,214.600 155.055 C 214.930 154.929,215.200 154.448,215.200 153.988 C 215.200 153.527,215.682 152.131,216.272 150.885 C 218.355 146.480,217.887 141.499,214.846 135.734 C 214.617 135.301,208.693 127.393,207.523 125.959 C 206.600 124.829,202.943 117.088,202.042 114.358 C 200.577 109.922,200.545 100.081,201.989 98.200 C 202.158 97.980,202.514 97.121,202.782 96.291 C 204.714 90.293,212.364 81.951,220.941 76.490 C 222.229 75.671,224.392 74.280,225.749 73.400 C 229.635 70.879,239.312 66.269,244.200 64.608 C 245.300 64.235,246.554 63.739,246.987 63.507 C 248.240 62.834,249.707 62.531,250.747 62.730 L 251.708 62.914 250.775 63.413 M196.800 146.600 C 196.800 146.930,196.631 147.200,196.424 147.200 C 195.919 147.200,195.558 146.575,195.878 146.256 C 196.328 145.805,196.800 145.981,196.800 146.600 M109.294 289.483 C 107.473 289.833,106.642 292.461,107.046 296.589 C 107.241 298.575,107.350 306.050,107.290 313.200 C 107.110 334.506,107.145 348.938,107.397 357.000 C 107.721 367.351,107.054 373.497,105.181 377.400 C 103.514 380.876,99.826 385.064,96.656 387.082 C 94.611 388.385,94.827 389.475,97.891 393.312 C 101.061 397.282,101.998 397.652,104.710 395.999 C 105.430 395.559,106.240 395.200,106.510 395.200 C 106.779 395.200,108.032 394.390,109.293 393.400 C 110.553 392.410,111.723 391.598,111.893 391.595 C 112.491 391.585,117.274 386.425,118.077 384.923 C 120.842 379.751,121.242 378.646,121.643 375.059 C 121.868 373.046,122.230 369.870,122.449 368.000 C 122.847 364.590,123.244 294.783,122.882 291.882 C 122.592 289.565,121.510 289.189,115.320 289.254 C 112.504 289.284,109.792 289.387,109.294 289.483 M120.577 291.689 C 121.130 292.477,121.199 296.559,121.192 327.789 C 121.181 372.610,121.010 375.323,117.746 382.265 C 115.405 387.244,105.616 395.200,101.830 395.200 C 101.076 395.200,96.800 390.240,96.800 389.365 C 96.800 388.751,97.377 388.113,98.702 387.263 C 102.404 384.888,105.596 380.869,107.683 375.957 L 108.600 373.800 108.800 332.812 L 109.000 291.823 110.000 291.318 C 111.911 290.351,119.835 290.629,120.577 291.689 M149.800 310.778 C 145.752 311.131,139.311 312.600,138.400 313.378 C 138.070 313.660,137.179 314.008,136.419 314.151 C 133.606 314.683,132.197 317.721,133.787 319.824 C 134.110 320.251,134.380 321.107,134.387 321.726 C 134.426 325.162,134.651 325.166,149.468 321.938 C 159.137 319.832,164.740 323.267,164.918 331.409 C 165.018 335.957,165.354 335.647,159.910 336.034 C 148.018 336.879,136.562 340.955,134.850 344.950 C 134.768 345.143,134.357 345.643,133.937 346.063 C 129.231 350.769,128.146 365.036,132.237 368.430 C 132.546 368.688,132.800 369.083,132.800 369.309 C 132.800 371.876,139.615 375.150,146.000 375.650 C 154.654 376.329,157.091 375.768,163.818 371.549 C 166.822 369.664,167.671 369.789,168.319 372.214 C 169.029 374.867,169.977 375.307,174.624 375.139 C 180.521 374.926,180.410 375.143,180.361 363.878 C 180.253 338.979,179.794 324.240,179.086 322.920 C 178.709 322.216,178.397 321.316,178.393 320.920 C 178.364 318.090,172.719 313.601,166.849 311.740 C 163.374 310.638,156.116 310.228,149.800 310.778 M264.659 310.818 C 262.932 311.011,261.312 311.334,261.059 311.535 C 260.807 311.737,259.525 312.031,258.211 312.191 C 256.897 312.350,254.737 312.902,253.411 313.418 C 252.085 313.935,250.494 314.463,249.875 314.592 C 248.085 314.967,247.587 316.646,248.244 320.094 C 249.093 324.549,249.901 324.942,255.139 323.446 C 268.026 319.764,277.784 321.520,279.443 327.819 C 281.164 334.353,280.003 336.559,275.063 336.142 C 273.094 335.975,270.819 336.103,268.343 336.520 C 266.284 336.867,263.712 337.253,262.626 337.378 C 261.540 337.503,260.242 337.874,259.740 338.202 C 259.239 338.531,258.597 338.801,258.314 338.801 C 255.904 338.807,250.031 343.277,247.803 346.800 C 247.176 347.790,246.200 349.304,245.632 350.165 C 244.417 352.009,244.037 363.516,245.123 365.600 C 245.409 366.150,245.950 367.178,246.324 367.884 C 247.516 370.132,249.798 372.148,253.248 374.000 L 256.600 375.800 263.400 375.800 C 269.898 375.800,272.800 375.369,272.800 374.403 C 272.800 374.237,273.533 373.985,274.430 373.842 C 275.398 373.687,276.935 372.935,278.213 371.990 C 280.866 370.031,282.000 369.907,282.000 371.578 C 282.000 374.116,283.444 374.986,287.865 375.113 C 295.404 375.330,295.043 376.852,294.483 347.200 C 294.196 332.004,293.889 323.657,293.579 322.600 C 293.156 321.160,290.192 316.380,289.535 316.078 C 289.286 315.964,287.740 314.662,286.400 313.436 C 283.803 311.063,273.524 309.825,264.659 310.818 M187.054 312.029 C 185.590 313.181,185.683 314.541,187.614 320.238 C 188.501 322.857,189.477 325.865,189.783 326.923 C 190.089 327.980,190.514 329.060,190.726 329.323 C 190.939 329.585,191.333 330.872,191.602 332.181 C 191.871 333.491,192.323 335.111,192.608 335.781 C 192.893 336.452,193.604 338.710,194.188 340.800 C 194.773 342.890,195.530 345.230,195.872 346.000 C 196.213 346.770,196.650 348.644,196.843 350.165 C 197.036 351.686,197.446 353.216,197.754 353.565 C 198.061 353.914,198.443 355.010,198.601 356.000 C 198.759 356.990,199.229 358.555,199.644 359.478 C 200.060 360.401,200.400 361.353,200.400 361.594 C 200.400 361.835,200.734 362.700,201.141 363.516 C 201.549 364.332,202.102 366.147,202.371 367.549 C 202.954 370.593,203.812 372.609,205.157 374.100 L 206.150 375.200 212.728 375.200 C 221.212 375.200,221.140 375.238,224.184 369.049 C 225.403 366.571,226.400 364.342,226.400 364.095 C 226.400 363.848,226.740 363.050,227.156 362.323 C 227.571 361.595,228.037 360.280,228.190 359.400 C 228.343 358.520,228.695 357.530,228.973 357.200 C 229.614 356.439,230.749 353.195,231.282 350.600 C 231.508 349.500,232.022 347.610,232.424 346.400 C 232.826 345.190,233.276 343.570,233.424 342.800 C 233.571 342.030,233.853 341.200,234.050 340.955 C 234.246 340.710,234.761 338.855,235.193 336.834 C 235.625 334.813,236.093 332.973,236.234 332.746 C 236.374 332.518,236.730 331.312,237.025 330.066 C 237.319 328.820,238.198 325.370,238.977 322.400 C 240.623 316.127,240.799 313.199,239.600 312.000 C 238.377 310.777,228.940 310.801,226.947 312.033 C 225.439 312.965,225.540 312.648,224.425 319.896 C 223.976 322.809,223.262 326.182,222.837 327.390 C 222.413 328.598,221.939 330.805,221.784 332.294 C 221.630 333.782,221.258 335.450,220.957 336.000 C 220.657 336.550,220.131 338.170,219.788 339.600 C 219.134 342.329,218.189 346.045,216.787 351.400 C 216.284 353.323,215.586 354.970,215.039 355.527 L 214.127 356.454 213.424 353.127 C 212.375 348.168,210.147 340.417,209.051 337.913 C 208.693 337.095,208.400 335.945,208.400 335.357 C 208.400 334.769,208.060 333.548,207.645 332.644 C 207.230 331.740,206.662 330.010,206.384 328.800 C 206.106 327.590,205.734 326.330,205.557 326.000 C 204.626 324.259,203.458 321.146,203.006 319.200 C 202.545 317.219,201.007 312.805,200.716 312.628 C 200.652 312.590,200.111 312.252,199.514 311.879 C 197.757 310.780,188.500 310.892,187.054 312.029 M162.627 312.161 C 163.712 312.469,165.274 312.837,166.097 312.978 C 171.632 313.928,176.440 318.582,177.673 324.184 C 178.584 328.322,178.788 371.996,177.900 372.696 C 177.011 373.396,175.186 373.638,172.815 373.370 C 169.786 373.027,169.624 372.897,169.062 370.358 C 168.421 367.464,167.610 367.362,164.075 369.731 C 160.810 371.919,158.417 373.200,157.595 373.200 C 157.256 373.200,156.533 373.514,155.989 373.897 C 153.932 375.347,145.359 375.079,140.875 373.423 C 130.994 369.776,128.196 356.847,135.095 346.719 C 138.422 341.835,148.157 338.146,158.827 337.726 C 167.128 337.399,167.008 337.478,166.978 332.335 C 166.909 320.501,156.813 316.867,139.542 322.458 C 136.286 323.512,135.753 323.340,135.418 321.128 C 135.275 320.178,135.072 318.946,134.967 318.392 C 134.247 314.577,154.822 309.942,162.627 312.161 M279.932 312.597 C 283.982 313.662,287.947 316.261,290.146 319.292 C 292.646 322.738,292.800 324.506,292.800 349.825 L 292.800 372.722 291.540 373.161 C 287.839 374.451,283.869 373.357,283.412 370.921 C 282.789 367.603,282.349 367.443,279.200 369.394 C 268.032 376.310,258.923 376.794,251.097 370.887 C 248.583 368.990,247.979 368.055,246.550 363.853 C 241.483 348.955,253.997 337.670,275.651 337.612 C 281.772 337.596,282.218 336.823,281.050 328.254 C 279.959 320.241,265.666 317.255,253.475 322.493 C 251.237 323.455,250.935 323.288,249.858 320.492 C 248.872 317.933,248.996 316.926,250.385 316.208 C 252.591 315.067,258.583 313.258,261.600 312.822 C 263.250 312.584,265.230 312.217,266.000 312.008 C 268.074 311.444,276.982 311.821,279.932 312.597 M294.804 313.192 C 293.378 315.856,296.246 317.343,302.600 317.233 C 305.339 317.186,306.740 314.797,305.031 313.088 C 304.030 312.087,295.348 312.176,294.804 313.192 M198.889 313.222 C 199.762 313.620,200.961 316.594,202.750 322.800 C 203.322 324.787,204.376 327.960,205.008 329.600 C 205.305 330.370,206.107 333.070,206.791 335.600 C 207.474 338.130,208.296 340.830,208.617 341.600 C 209.424 343.537,211.592 351.224,211.607 352.200 C 211.625 353.328,213.453 359.613,213.892 360.052 C 214.688 360.848,218.825 352.238,218.794 349.849 C 218.789 349.419,219.554 346.778,221.286 341.245 C 221.726 339.839,222.329 337.409,222.626 335.845 C 222.923 334.280,223.688 330.750,224.327 328.000 C 224.966 325.250,225.800 320.907,226.180 318.348 C 227.042 312.556,226.876 312.680,233.520 312.865 C 239.740 313.038,239.536 312.769,238.069 318.851 C 237.412 321.573,236.650 325.150,236.374 326.800 C 236.098 328.450,235.649 330.252,235.375 330.805 C 235.101 331.358,234.747 332.708,234.587 333.805 C 234.427 334.902,234.050 336.286,233.748 336.880 C 233.447 337.474,233.005 338.914,232.767 340.080 C 232.284 342.447,231.743 344.235,228.796 353.200 C 227.675 356.610,226.432 360.120,226.032 361.000 C 225.633 361.880,225.008 363.320,224.643 364.200 C 224.279 365.080,223.642 366.435,223.230 367.211 C 222.817 367.987,222.274 369.382,222.024 370.312 C 221.292 373.029,220.642 373.248,213.279 373.265 C 205.843 373.281,205.545 373.179,204.684 370.319 C 204.333 369.153,203.776 367.390,203.445 366.400 C 203.115 365.410,202.376 362.980,201.804 361.000 C 201.232 359.020,200.210 355.780,199.533 353.800 C 198.856 351.820,198.044 349.120,197.730 347.800 C 197.047 344.930,195.785 340.879,194.802 338.400 C 194.409 337.410,193.886 335.634,193.638 334.453 C 193.391 333.273,192.476 330.123,191.605 327.453 C 190.735 324.784,189.496 320.890,188.853 318.800 C 188.210 316.710,187.556 314.686,187.400 314.303 C 186.849 312.948,196.329 312.056,198.889 313.222 M154.000 345.185 C 145.816 346.586,141.993 351.244,143.192 358.353 C 144.781 367.772,157.777 369.178,165.802 360.797 L 167.000 359.546 167.000 352.793 C 167.000 347.793,166.865 345.904,166.481 345.520 C 165.880 344.918,156.957 344.679,154.000 345.185 M267.200 345.437 C 259.817 347.396,256.559 351.609,257.375 358.141 C 258.536 367.428,270.673 369.228,279.542 361.429 C 281.411 359.786,282.288 346.585,280.611 345.359 C 279.552 344.584,270.206 344.639,267.200 345.437 M279.336 346.559 C 279.942 347.483,279.958 355.401,279.360 358.328 C 279.173 359.243,276.730 362.000,276.106 362.000 C 275.930 362.000,275.126 362.449,274.319 362.997 C 265.889 368.725,255.321 361.526,259.361 352.806 C 260.983 349.305,263.969 347.563,269.600 346.832 C 271.470 346.589,273.540 346.228,274.200 346.030 C 276.609 345.305,278.653 345.516,279.336 346.559 M164.436 346.676 C 165.479 347.719,165.981 357.110,165.100 359.080 C 164.555 360.298,162.865 361.967,162.156 361.987 C 161.912 361.994,161.068 362.436,160.282 362.970 C 153.406 367.636,144.918 364.224,144.688 356.701 C 144.505 350.670,146.809 348.330,154.200 347.045 C 156.180 346.700,158.250 346.339,158.800 346.243 C 160.419 345.959,163.994 346.234,164.436 346.676 " stroke="none" fill="#f4c295" fill-rule="evenodd"></path><path id="path4" d="M226.267 4.267 C 226.120 4.413,226.014 4.908,226.032 5.367 C 226.049 5.825,226.154 5.975,226.265 5.700 C 226.376 5.425,226.825 5.200,227.262 5.200 C 227.969 5.200,227.990 5.133,227.457 4.600 C 226.783 3.926,226.646 3.887,226.267 4.267 M256.112 59.461 C 255.727 59.617,255.727 59.771,256.112 60.187 C 256.679 60.802,257.200 60.605,257.200 59.776 C 257.200 59.185,256.963 59.116,256.112 59.461 M270.019 148.816 C 268.820 148.990,267.648 149.394,267.414 149.714 C 267.180 150.033,266.404 150.423,265.690 150.580 C 264.567 150.827,262.400 152.897,262.400 153.724 C 262.400 154.579,264.156 154.811,266.179 154.223 C 269.279 153.322,273.256 153.402,274.890 154.399 C 275.611 154.838,276.517 155.198,276.904 155.199 C 277.291 155.199,277.916 155.560,278.293 156.000 C 278.670 156.440,279.196 156.800,279.464 156.800 C 279.731 156.800,280.456 157.354,281.075 158.030 C 281.694 158.707,282.605 159.673,283.100 160.176 C 283.595 160.680,284.000 161.223,284.000 161.383 C 284.000 161.543,284.360 162.131,284.800 162.691 C 286.940 165.411,285.812 174.358,282.694 179.398 C 281.233 181.760,275.846 187.600,275.129 187.600 C 274.844 187.600,273.680 188.546,271.560 190.500 C 271.142 190.885,270.648 191.200,270.462 191.200 C 270.276 191.200,269.785 191.575,269.370 192.033 C 268.955 192.491,268.028 193.112,267.308 193.413 C 266.589 193.713,266.000 194.148,266.000 194.380 C 266.000 194.611,265.744 194.800,265.431 194.800 C 265.118 194.800,264.327 195.250,263.673 195.800 C 263.019 196.350,262.208 196.800,261.871 196.800 C 261.533 196.800,260.947 197.115,260.568 197.500 C 260.189 197.885,259.322 198.396,258.642 198.635 C 257.351 199.089,255.753 201.277,256.193 201.989 C 256.501 202.488,259.067 202.539,259.368 202.053 C 259.486 201.861,260.344 201.583,261.274 201.435 C 263.071 201.147,270.326 198.870,271.000 198.382 C 271.220 198.223,271.984 197.968,272.698 197.815 C 273.411 197.662,274.131 197.301,274.298 197.012 C 274.464 196.723,275.230 196.198,276.000 195.847 C 276.770 195.495,278.300 194.667,279.400 194.007 C 280.500 193.347,281.805 192.629,282.300 192.413 C 282.795 192.197,283.200 191.857,283.200 191.658 C 283.200 191.460,283.785 191.055,284.500 190.759 C 286.132 190.083,290.041 186.556,293.585 182.562 C 299.607 175.774,301.121 163.659,296.556 158.778 C 296.030 158.216,295.600 157.583,295.600 157.372 C 295.600 156.317,289.319 151.448,287.000 150.705 C 286.340 150.494,285.256 150.080,284.591 149.785 C 283.926 149.490,281.226 149.060,278.591 148.828 C 273.300 148.364,273.135 148.364,270.019 148.816 M197.156 150.300 C 197.722 151.379,198.503 151.454,199.251 150.500 C 199.750 149.864,199.735 149.851,199.092 150.355 C 198.479 150.837,198.272 150.810,197.534 150.155 C 196.690 149.406,196.687 149.407,197.156 150.300 M283.000 150.781 C 297.476 154.393,302.365 169.677,292.860 181.600 C 287.699 188.073,276.943 195.138,267.600 198.193 C 265.730 198.805,263.690 199.551,263.068 199.852 C 261.787 200.471,259.200 200.591,259.200 200.032 C 259.200 199.829,259.752 199.542,260.427 199.394 C 261.102 199.246,261.745 198.888,261.856 198.599 C 261.967 198.310,262.630 197.845,263.329 197.566 C 264.028 197.287,264.870 196.819,265.200 196.525 C 265.530 196.231,267.330 194.976,269.200 193.734 C 276.641 188.795,282.285 183.091,285.012 177.754 C 291.385 165.284,283.928 152.756,270.016 152.560 C 267.044 152.518,265.379 152.338,265.283 152.048 C 265.200 151.801,265.553 151.592,266.067 151.582 C 266.580 151.573,267.720 151.285,268.600 150.943 C 272.358 149.483,277.565 149.424,283.000 150.781 M159.194 151.788 C 158.201 152.065,155.411 152.424,152.994 152.585 C 150.439 152.756,148.349 153.091,148.000 153.387 C 147.670 153.666,146.346 153.997,145.059 154.123 C 143.771 154.248,142.421 154.616,142.059 154.940 C 141.696 155.265,140.334 155.725,139.031 155.964 C 137.728 156.203,136.249 156.669,135.745 156.999 C 135.241 157.330,134.576 157.600,134.268 157.600 C 133.960 157.600,133.258 157.954,132.709 158.386 C 132.159 158.818,130.839 159.367,129.775 159.606 C 123.876 160.928,120.050 167.216,123.718 169.562 C 124.423 170.013,125.680 170.841,126.510 171.403 C 128.064 172.454,130.996 173.200,133.575 173.200 C 134.381 173.200,135.211 173.352,135.420 173.538 C 135.951 174.011,140.719 174.737,145.000 174.997 C 146.980 175.117,149.499 175.487,150.597 175.818 C 153.802 176.784,203.194 176.603,207.200 175.610 C 207.970 175.419,210.580 175.048,213.000 174.785 C 215.420 174.523,218.450 174.059,219.732 173.754 C 221.015 173.449,223.175 173.199,224.532 173.197 C 227.945 173.192,233.919 172.472,234.901 171.946 C 235.348 171.707,236.978 171.352,238.523 171.158 C 240.067 170.964,241.631 170.534,241.997 170.203 C 242.363 169.871,243.027 169.600,243.472 169.600 C 244.588 169.600,246.800 168.794,246.800 168.388 C 246.800 168.204,247.195 167.928,247.678 167.775 C 248.161 167.622,249.686 166.620,251.067 165.548 C 252.447 164.477,253.740 163.600,253.940 163.600 C 254.139 163.600,254.503 163.358,254.748 163.063 C 255.830 161.759,249.396 160.981,247.165 162.145 C 246.595 162.442,244.615 162.808,242.765 162.958 C 240.914 163.109,237.870 163.490,236.000 163.807 C 234.130 164.123,230.980 164.558,229.000 164.773 C 227.020 164.988,223.993 165.430,222.273 165.754 C 219.117 166.348,199.614 167.444,198.665 167.080 C 198.383 166.972,196.544 167.120,194.577 167.408 C 188.576 168.288,162.975 168.612,158.600 167.864 C 156.620 167.526,153.830 167.126,152.400 166.977 C 150.970 166.827,149.223 166.440,148.519 166.116 C 147.814 165.792,146.464 165.299,145.519 165.021 C 143.241 164.352,143.082 163.338,144.994 161.659 C 145.783 160.967,146.844 160.400,147.352 160.400 C 147.860 160.400,148.602 160.040,149.000 159.600 C 149.398 159.160,149.921 158.798,150.162 158.796 C 150.403 158.794,151.500 158.350,152.600 157.809 C 153.700 157.268,155.050 156.819,155.600 156.811 C 156.150 156.803,157.189 156.438,157.910 155.999 C 158.630 155.559,159.710 155.199,160.310 155.198 C 162.838 155.193,167.400 153.051,167.400 151.870 C 167.400 151.209,161.482 151.150,159.194 151.788 M161.495 153.762 C 161.598 153.864,160.988 154.058,160.141 154.193 C 159.293 154.327,157.700 154.780,156.600 155.200 C 155.500 155.619,154.060 156.088,153.400 156.242 C 151.612 156.658,143.444 160.665,142.711 161.487 C 142.134 162.133,141.838 163.387,141.956 164.692 C 142.033 165.548,144.907 166.709,149.831 167.873 L 154.600 169.000 178.400 168.920 C 192.165 168.875,203.718 168.661,205.800 168.415 C 207.780 168.180,212.370 167.809,216.000 167.589 C 219.630 167.370,224.310 166.906,226.400 166.558 C 228.490 166.210,232.360 165.688,235.000 165.398 C 237.640 165.108,241.378 164.574,243.308 164.212 C 249.005 163.144,251.853 163.720,249.097 165.383 C 243.992 168.464,243.498 168.638,235.400 170.208 C 233.640 170.549,230.940 171.090,229.400 171.410 C 227.860 171.730,225.070 172.096,223.200 172.224 C 221.330 172.351,217.550 172.794,214.800 173.208 C 198.687 175.634,148.621 175.470,138.816 172.959 C 137.615 172.652,136.051 172.400,135.341 172.400 C 134.035 172.400,127.906 170.663,126.800 169.979 C 126.470 169.775,125.548 169.255,124.751 168.822 C 123.294 168.032,122.592 166.701,123.127 165.745 C 123.530 165.025,127.642 162.000,128.218 162.000 C 128.479 162.000,129.124 161.660,129.652 161.245 C 130.180 160.829,131.240 160.302,132.006 160.074 C 132.773 159.845,134.840 159.096,136.600 158.409 C 146.423 154.574,159.809 152.076,161.495 153.762 M153.800 182.740 C 153.033 182.989,152.608 183.239,149.000 185.556 C 144.163 188.662,142.904 190.388,143.366 193.279 C 143.626 194.901,145.645 197.586,146.613 197.596 C 146.840 197.598,147.494 197.976,148.066 198.436 C 149.302 199.431,153.805 201.062,156.371 201.445 C 157.377 201.595,158.560 201.951,159.000 202.236 C 159.440 202.521,161.240 202.870,163.000 203.013 C 164.760 203.156,167.280 203.524,168.600 203.832 C 176.582 205.694,203.685 205.686,211.800 203.819 C 213.120 203.515,216.084 203.144,218.388 202.995 C 220.691 202.846,223.211 202.486,223.988 202.196 C 224.764 201.906,227.051 201.566,229.068 201.441 C 231.311 201.302,233.532 200.900,234.783 200.407 C 235.909 199.963,237.264 199.600,237.796 199.600 C 238.936 199.600,240.800 198.816,240.800 198.336 C 240.800 198.151,241.313 198.000,241.940 198.000 C 246.221 198.000,246.556 194.633,242.400 193.391 C 241.850 193.227,240.590 192.433,239.600 191.628 C 236.889 189.422,235.608 188.711,234.868 189.000 C 234.048 189.321,228.410 189.988,224.530 190.223 C 222.951 190.319,221.151 190.594,220.530 190.835 C 219.908 191.075,217.216 191.418,214.547 191.597 C 211.878 191.775,209.268 192.152,208.747 192.433 C 206.212 193.804,172.608 193.826,170.094 192.458 C 169.596 192.188,167.346 191.858,165.094 191.726 C 158.646 191.347,154.291 188.909,156.232 186.764 C 156.597 186.362,156.987 185.215,157.099 184.216 L 157.304 182.400 155.952 182.440 C 155.208 182.462,154.240 182.597,153.800 182.740 M154.547 187.015 C 153.982 191.815,158.172 193.128,177.600 194.238 C 183.870 194.596,190.980 194.785,193.400 194.657 C 206.153 193.985,212.537 193.509,215.600 193.000 C 217.470 192.689,220.530 192.317,222.400 192.174 C 224.270 192.030,227.103 191.581,228.696 191.177 C 233.166 190.042,235.674 190.059,237.098 191.233 C 237.743 191.765,239.040 192.650,239.980 193.200 C 244.140 195.632,244.886 197.177,241.908 197.194 C 241.308 197.197,240.132 197.474,239.296 197.808 C 238.460 198.143,236.341 198.663,234.588 198.964 C 232.835 199.266,230.050 199.789,228.400 200.127 C 220.598 201.727,218.128 202.100,211.800 202.629 C 208.060 202.942,203.560 203.369,201.800 203.578 C 196.629 204.190,179.169 204.088,175.000 203.420 C 173.020 203.103,169.780 202.721,167.800 202.572 C 164.269 202.305,156.093 200.506,154.474 199.639 C 154.022 199.398,153.326 199.200,152.926 199.200 C 150.869 199.199,145.553 195.755,144.462 193.716 C 143.257 191.465,147.622 186.672,152.400 185.001 C 154.525 184.257,154.836 184.549,154.547 187.015 M159.950 212.731 C 158.932 213.099,157.852 213.603,157.550 213.851 C 157.247 214.099,156.550 214.440,156.000 214.609 C 154.699 215.007,152.400 216.764,152.400 217.359 C 152.400 217.614,152.040 218.130,151.600 218.507 C 149.429 220.366,153.445 227.920,156.638 227.983 C 157.099 227.993,157.793 228.350,158.179 228.777 C 158.566 229.205,159.427 229.674,160.091 229.820 C 160.755 229.966,161.862 230.405,162.549 230.796 C 163.237 231.186,164.737 231.608,165.882 231.732 C 167.027 231.856,168.377 232.225,168.882 232.551 C 169.387 232.877,171.150 233.256,172.800 233.394 C 174.450 233.531,177.600 233.944,179.800 234.311 C 185.705 235.296,208.570 235.300,212.600 234.316 C 214.140 233.940,216.570 233.462,218.000 233.254 C 220.681 232.863,227.491 230.971,228.200 230.420 C 228.420 230.249,229.372 229.991,230.315 229.848 C 231.258 229.704,232.695 229.229,233.509 228.793 C 234.322 228.357,235.384 228.000,235.868 228.000 C 237.303 228.000,241.613 225.762,241.913 224.861 C 242.165 224.106,240.174 222.483,238.349 221.955 C 237.387 221.676,236.171 221.123,235.646 220.724 C 235.121 220.326,234.381 220.000,234.000 220.000 C 233.619 220.000,232.879 219.665,232.354 219.255 C 231.829 218.845,230.953 218.370,230.408 218.199 C 229.862 218.028,228.908 217.512,228.288 217.054 C 227.176 216.232,227.136 216.230,225.280 216.952 C 224.246 217.354,221.690 217.915,219.600 218.198 C 217.510 218.481,214.336 219.015,212.546 219.384 C 206.793 220.569,176.902 220.290,170.800 218.995 C 169.370 218.692,167.390 218.335,166.400 218.203 C 164.014 217.884,162.048 216.256,162.730 215.164 C 164.318 212.621,163.130 211.581,159.950 212.731 M161.413 214.837 C 161.468 219.055,165.548 220.151,186.600 221.604 C 195.395 222.210,214.808 220.994,218.037 219.635 C 218.954 219.249,225.400 218.308,226.920 218.339 C 227.316 218.347,228.260 218.679,229.017 219.077 C 230.505 219.859,234.540 221.860,237.900 223.482 C 239.055 224.039,240.000 224.645,240.000 224.829 C 240.000 225.552,235.931 227.075,228.800 229.021 C 226.930 229.532,224.680 230.223,223.800 230.557 C 222.920 230.891,221.720 231.173,221.132 231.182 C 220.545 231.192,219.015 231.462,217.732 231.782 C 200.895 235.982,162.487 232.544,156.219 226.276 C 155.927 225.984,155.152 225.294,154.496 224.742 C 150.414 221.307,151.815 217.683,158.400 214.645 C 160.934 213.475,161.395 213.505,161.413 214.837 M130.565 231.177 C 129.886 231.339,129.107 231.611,128.833 231.779 C 128.560 231.948,126.730 232.219,124.767 232.382 C 122.342 232.583,120.964 232.890,120.468 233.339 C 120.066 233.702,119.211 234.002,118.569 234.004 C 117.926 234.006,116.500 234.450,115.400 234.991 C 114.300 235.532,113.180 235.981,112.912 235.987 C 112.114 236.008,107.600 238.420,107.600 238.826 C 107.600 239.032,107.243 239.200,106.807 239.200 C 106.371 239.200,105.516 239.640,104.907 240.179 C 100.150 244.384,100.604 243.682,100.602 246.838 C 100.600 249.236,100.728 249.782,101.400 250.261 C 103.806 251.975,105.224 252.716,106.592 252.972 C 107.431 253.129,108.496 253.493,108.958 253.781 C 109.421 254.069,112.950 254.788,116.800 255.380 C 126.715 256.903,127.931 257.120,130.387 257.797 C 131.620 258.137,134.238 258.402,136.387 258.405 C 138.526 258.407,141.166 258.674,142.400 259.012 C 143.939 259.433,147.505 259.680,154.277 259.833 C 163.728 260.047,167.446 260.247,180.666 261.252 C 185.779 261.641,188.542 261.641,193.866 261.252 C 197.570 260.982,202.732 260.605,205.337 260.415 C 207.942 260.225,214.196 259.955,219.235 259.815 C 225.350 259.645,228.829 259.385,229.698 259.033 C 230.414 258.743,233.111 258.398,235.691 258.268 C 238.487 258.126,240.829 257.802,241.491 257.465 C 242.101 257.154,244.016 256.770,245.747 256.611 C 247.478 256.453,250.088 255.998,251.547 255.601 C 253.006 255.204,255.010 254.750,256.000 254.592 C 256.990 254.434,258.267 254.067,258.837 253.775 C 259.408 253.483,260.848 253.128,262.037 252.987 C 264.196 252.730,269.427 251.236,271.914 250.165 C 272.636 249.854,273.428 249.600,273.672 249.600 C 274.481 249.600,282.318 245.553,283.028 244.769 C 283.411 244.346,283.942 244.000,284.208 244.000 C 286.667 244.000,287.666 237.546,285.511 235.577 C 283.308 233.566,282.438 233.978,282.223 237.134 C 282.037 239.874,277.994 243.200,274.851 243.200 C 274.219 243.200,272.914 243.542,271.951 243.961 C 270.988 244.379,269.210 244.850,268.000 245.007 C 266.790 245.165,265.350 245.518,264.800 245.791 C 264.250 246.065,262.289 246.400,260.442 246.536 C 258.595 246.672,256.705 247.031,256.242 247.333 C 255.779 247.634,254.050 248.009,252.400 248.165 C 250.750 248.321,247.811 248.701,245.869 249.010 C 243.927 249.319,239.247 249.764,235.469 249.999 C 231.691 250.234,226.710 250.625,224.400 250.868 C 222.090 251.110,218.670 251.448,216.800 251.619 C 212.193 252.041,165.807 252.022,161.800 251.597 C 158.599 251.257,155.326 250.895,145.200 249.761 C 134.619 248.576,131.384 248.077,130.200 247.445 C 129.540 247.093,128.474 246.804,127.830 246.802 C 126.813 246.800,121.072 244.192,119.722 243.119 C 119.140 242.656,119.851 240.800,120.611 240.800 C 120.877 240.800,122.307 239.986,123.790 238.992 C 125.273 237.998,127.315 236.998,128.327 236.772 C 129.339 236.545,130.384 236.179,130.650 235.959 C 130.915 235.739,133.329 235.216,136.014 234.798 C 141.961 233.871,144.064 232.487,141.381 231.264 C 140.264 230.755,132.588 230.694,130.565 231.177 M137.972 231.974 C 138.392 232.240,138.125 232.410,136.972 232.613 C 136.108 232.765,135.220 233.111,135.000 233.381 C 134.780 233.652,133.430 234.158,132.000 234.505 C 125.197 236.158,118.534 239.687,117.790 242.030 C 117.040 244.396,123.155 247.362,132.200 249.017 C 133.740 249.299,136.170 249.797,137.600 250.123 C 139.030 250.449,142.000 250.843,144.200 250.998 C 146.400 251.154,149.623 251.529,151.362 251.833 C 154.444 252.370,161.229 252.646,179.600 252.979 C 191.297 253.191,223.621 252.518,226.200 252.009 C 227.300 251.792,232.430 251.349,237.600 251.025 C 242.770 250.701,247.540 250.253,248.200 250.030 C 248.860 249.806,251.639 249.338,254.376 248.989 C 257.112 248.640,259.476 248.277,259.629 248.182 C 259.782 248.088,261.862 247.720,264.251 247.365 C 266.641 247.010,269.047 246.492,269.598 246.213 C 270.149 245.935,271.241 245.591,272.025 245.449 C 274.541 244.995,280.115 242.446,281.475 241.127 C 282.776 239.866,282.896 239.639,283.361 237.537 C 283.801 235.550,285.982 236.744,285.994 238.978 C 286.000 240.136,284.223 243.200,283.546 243.200 C 283.356 243.200,282.871 243.515,282.468 243.900 C 281.505 244.822,273.370 248.800,272.449 248.800 C 272.228 248.800,269.922 249.512,267.324 250.383 C 264.726 251.253,261.474 252.143,260.097 252.361 C 258.720 252.578,257.425 252.861,257.217 252.989 C 256.475 253.448,240.911 256.233,233.600 257.216 C 232.170 257.408,228.120 257.749,224.600 257.974 C 221.080 258.200,216.400 258.609,214.200 258.884 C 208.717 259.569,164.653 259.557,159.000 258.869 C 156.800 258.601,150.774 258.116,145.610 257.792 C 140.445 257.468,135.675 257.034,135.010 256.829 C 134.344 256.624,131.716 256.263,129.170 256.027 C 126.623 255.791,123.653 255.349,122.570 255.044 C 121.486 254.740,118.800 254.281,116.600 254.024 C 106.310 252.825,100.452 249.834,101.354 246.240 C 101.949 243.870,112.566 236.519,115.540 236.418 C 115.836 236.408,116.646 236.142,117.340 235.827 C 119.133 235.013,125.800 233.291,128.400 232.971 C 129.610 232.823,131.500 232.465,132.600 232.177 C 134.972 231.555,137.178 231.472,137.972 231.974 M296.634 248.840 C 295.993 249.019,295.363 249.328,295.234 249.527 C 294.858 250.106,291.073 252.000,290.291 252.000 C 289.897 252.000,289.472 252.268,289.346 252.596 C 289.221 252.923,288.371 253.390,287.459 253.633 C 286.546 253.876,285.518 254.326,285.174 254.632 C 284.829 254.939,283.929 255.311,283.174 255.458 C 282.418 255.604,281.173 256.057,280.406 256.462 C 279.639 256.868,278.541 257.200,277.965 257.200 C 277.390 257.200,276.073 257.650,275.038 258.200 C 274.004 258.750,272.672 259.204,272.079 259.209 C 271.485 259.214,270.215 259.574,269.256 260.009 C 268.297 260.444,266.990 260.800,266.352 260.800 C 265.714 260.800,263.618 261.147,261.696 261.571 C 259.773 261.996,256.400 262.628,254.200 262.977 C 252.000 263.326,249.225 263.789,248.033 264.006 C 246.842 264.222,244.602 264.400,243.056 264.400 C 241.511 264.400,238.616 264.664,236.623 264.987 C 234.630 265.309,230.120 265.856,226.600 266.202 C 223.080 266.548,218.760 267.042,217.000 267.299 C 211.051 268.170,175.314 268.111,165.000 267.214 C 160.160 266.793,154.670 266.328,152.800 266.180 C 150.930 266.032,149.220 265.768,149.000 265.592 C 148.267 265.007,139.288 264.215,138.105 264.631 C 136.487 265.200,136.470 266.290,138.069 267.035 C 138.801 267.376,139.876 267.914,140.458 268.229 C 141.040 268.545,142.660 268.921,144.058 269.065 C 145.456 269.208,146.960 269.549,147.400 269.822 C 147.840 270.096,150.000 270.438,152.200 270.583 C 154.400 270.728,157.100 271.093,158.200 271.394 C 159.300 271.694,163.620 272.154,167.800 272.416 C 171.980 272.678,175.738 273.071,176.151 273.288 C 177.218 273.849,196.631 274.252,206.600 273.920 C 211.220 273.766,218.330 273.557,222.400 273.455 C 226.470 273.352,230.700 273.158,231.800 273.023 C 232.900 272.888,236.697 272.616,240.239 272.420 C 244.255 272.196,247.211 271.839,248.096 271.469 C 248.877 271.143,250.929 270.759,252.658 270.616 C 254.386 270.472,256.520 270.114,257.400 269.819 C 258.280 269.525,260.569 269.079,262.487 268.829 C 264.405 268.578,266.655 268.135,267.487 267.844 C 268.319 267.552,269.898 267.181,270.995 267.018 C 272.092 266.856,273.442 266.495,273.995 266.217 C 274.548 265.939,275.900 265.610,277.000 265.486 C 279.063 265.253,284.704 263.188,285.149 262.502 C 285.287 262.290,286.084 261.989,286.921 261.836 C 287.758 261.682,288.542 261.296,288.664 260.978 C 288.786 260.660,289.112 260.400,289.388 260.400 C 290.332 260.400,295.600 256.103,295.600 255.332 C 295.600 255.040,295.780 254.800,295.999 254.800 C 296.586 254.800,298.784 251.141,298.792 250.149 C 298.803 248.938,298.008 248.455,296.634 248.840 M296.800 251.364 C 296.800 253.405,289.152 259.710,285.000 261.093 C 284.120 261.386,282.860 261.874,282.200 262.176 C 279.881 263.239,275.383 264.758,273.800 265.013 C 272.920 265.155,272.020 265.413,271.800 265.587 C 271.580 265.760,270.140 266.110,268.600 266.364 C 267.060 266.619,264.270 267.173,262.400 267.595 C 256.685 268.887,252.460 269.572,246.400 270.191 C 243.210 270.517,239.070 270.971,237.200 271.200 C 223.910 272.825,178.852 272.801,167.800 271.163 C 166.260 270.934,162.080 270.498,158.511 270.194 C 154.942 269.889,151.662 269.447,151.221 269.211 C 150.781 268.976,149.054 268.610,147.382 268.398 C 144.000 267.969,143.229 267.681,144.057 267.156 C 144.900 266.622,148.808 266.738,152.265 267.400 C 159.691 268.821,218.696 269.347,224.400 268.043 C 225.390 267.816,229.170 267.353,232.800 267.014 C 236.430 266.674,240.891 266.121,242.713 265.783 C 244.535 265.445,247.775 265.019,249.913 264.835 C 253.670 264.512,257.361 263.857,262.800 262.547 C 264.230 262.203,266.660 261.676,268.200 261.377 C 272.548 260.532,280.843 258.035,282.862 256.964 C 283.446 256.654,284.203 256.400,284.545 256.400 C 285.193 256.400,294.317 251.833,294.980 251.176 C 295.561 250.601,296.800 250.729,296.800 251.364 " stroke="none" fill="#bed2dc" fill-rule="evenodd"></path></g></svg>