<svg id="svg" version="1.1" xmlns="http://www.w3.org/2000/svg" xmlns:xlink="http://www.w3.org/1999/xlink" width="400" height="231.0810810810811" viewBox="0, 0, 400,231.0810810810811"><g id="svgg"><path id="path0" d="M261.096 62.010 C 260.675 63.169,257.035 66.808,255.285 67.820 C 254.826 68.085,254.369 68.434,254.270 68.595 C 254.170 68.756,253.653 69.005,253.120 69.149 C 252.587 69.292,251.865 69.651,251.515 69.945 C 251.165 70.240,250.537 70.553,250.121 70.641 C 249.705 70.729,249.150 70.998,248.888 71.238 C 248.626 71.477,247.918 71.766,247.314 71.879 C 246.709 71.992,245.987 72.292,245.709 72.546 C 245.430 72.801,244.726 73.077,244.143 73.160 C 243.560 73.243,242.676 73.530,242.178 73.798 C 241.679 74.065,240.607 74.423,239.795 74.593 C 238.984 74.763,237.891 75.102,237.368 75.345 C 236.829 75.597,235.626 75.849,234.594 75.929 C 233.379 76.022,232.526 76.221,232.031 76.527 C 231.488 76.863,230.570 77.049,228.614 77.220 C 225.863 77.461,225.591 77.515,224.372 78.053 C 223.959 78.235,222.006 78.472,219.748 78.614 C 217.597 78.750,215.110 78.956,214.220 79.074 C 213.329 79.192,211.561 79.392,210.289 79.518 C 207.487 79.797,193.633 79.813,191.214 79.540 C 190.260 79.432,188.127 79.190,186.474 79.002 C 184.821 78.813,182.069 78.586,180.358 78.497 C 178.648 78.408,176.515 78.145,175.619 77.914 C 174.722 77.682,172.948 77.367,171.676 77.212 C 170.405 77.058,168.879 76.743,168.286 76.512 C 167.693 76.281,166.288 75.972,165.165 75.825 C 164.027 75.677,162.812 75.371,162.422 75.134 C 162.038 74.900,161.063 74.603,160.256 74.473 C 159.449 74.343,158.543 74.076,158.243 73.879 C 157.943 73.682,156.993 73.359,156.132 73.159 C 155.271 72.960,154.395 72.642,154.185 72.453 C 153.975 72.264,153.263 71.966,152.601 71.792 C 151.940 71.617,151.222 71.315,151.006 71.119 C 150.790 70.924,150.169 70.607,149.627 70.416 C 149.084 70.224,148.373 69.857,148.046 69.600 C 147.719 69.343,147.324 69.133,147.168 69.133 C 147.012 69.133,146.492 68.821,146.012 68.439 C 145.532 68.058,145.050 67.746,144.942 67.746 C 144.186 67.746,139.421 63.312,138.947 62.166 C 138.591 61.307,138.372 61.329,138.049 62.254 C 137.782 63.021,137.772 125.154,138.034 163.276 C 138.150 180.268,138.152 180.311,138.644 180.849 C 138.915 181.145,139.206 181.614,139.290 181.891 C 139.492 182.557,144.471 187.333,145.595 187.939 C 146.078 188.199,147.046 188.695,147.746 189.042 C 148.445 189.388,149.074 189.755,149.142 189.858 C 149.211 189.960,149.726 190.206,150.287 190.404 C 150.848 190.602,151.468 190.905,151.665 191.077 C 151.862 191.250,152.647 191.569,153.410 191.786 C 154.173 192.003,154.975 192.339,155.191 192.532 C 155.408 192.726,156.283 193.031,157.136 193.209 C 157.990 193.388,159.009 193.726,159.402 193.961 C 159.794 194.195,160.880 194.508,161.815 194.656 C 162.750 194.804,163.816 195.081,164.185 195.272 C 164.554 195.463,165.910 195.777,167.198 195.969 C 168.486 196.162,169.812 196.459,170.145 196.630 C 170.479 196.801,172.052 197.062,173.642 197.210 C 175.231 197.357,177.364 197.683,178.382 197.933 C 180.619 198.484,191.181 198.765,207.399 198.707 C 217.393 198.671,218.704 198.586,221.272 197.804 C 221.844 197.629,223.665 197.378,225.318 197.246 C 227.116 197.102,228.835 196.825,229.595 196.557 C 230.295 196.310,231.686 195.995,232.687 195.856 C 233.688 195.717,234.949 195.408,235.490 195.169 C 236.030 194.930,237.107 194.661,237.884 194.571 C 238.660 194.480,239.688 194.206,240.168 193.960 C 240.648 193.714,241.702 193.359,242.510 193.170 C 243.318 192.982,244.242 192.621,244.564 192.368 C 244.886 192.115,245.442 191.908,245.801 191.908 C 246.517 191.908,247.630 191.473,247.630 191.193 C 247.630 191.096,248.217 190.796,248.935 190.528 C 249.652 190.259,250.498 189.836,250.815 189.586 C 251.132 189.337,251.560 189.131,251.765 189.129 C 251.971 189.126,252.597 188.814,253.156 188.435 C 253.716 188.056,254.299 187.746,254.451 187.746 C 255.087 187.746,260.512 182.330,260.690 181.518 C 260.769 181.159,261.088 180.521,261.399 180.099 L 261.965 179.332 261.965 120.693 C 261.965 59.881,261.962 59.628,261.096 62.010 M175.230 111.301 C 175.437 111.488,176.179 111.785,176.879 111.962 C 178.599 112.396,178.721 112.692,178.725 116.459 C 178.730 121.168,178.519 121.415,175.675 120.035 C 173.385 118.924,169.916 118.535,167.075 119.071 L 165.542 119.360 164.725 120.821 L 163.908 122.281 164.616 123.683 C 165.106 124.654,165.601 125.259,166.226 125.654 C 166.723 125.968,167.191 126.325,167.267 126.448 C 167.343 126.571,167.794 126.796,168.269 126.948 C 168.744 127.100,169.341 127.405,169.595 127.627 C 169.850 127.848,170.370 128.132,170.752 128.260 C 171.133 128.387,171.850 128.765,172.345 129.101 C 172.839 129.436,173.367 129.711,173.518 129.711 C 173.669 129.711,174.037 129.971,174.335 130.289 C 174.634 130.607,175.023 130.867,175.199 130.867 C 175.589 130.867,178.728 133.958,178.728 134.342 C 178.728 134.492,178.988 134.924,179.306 135.302 C 179.628 135.684,179.884 136.283,179.884 136.650 C 179.884 137.014,179.980 137.563,180.098 137.872 C 181.169 140.691,179.830 145.591,177.285 148.162 C 175.650 149.813,175.412 149.992,174.451 150.295 C 173.942 150.456,173.293 150.768,173.009 150.989 C 172.725 151.210,171.902 151.465,171.181 151.555 C 170.460 151.645,169.248 151.917,168.489 152.160 C 166.693 152.734,163.966 152.734,161.135 152.160 C 159.939 151.918,158.480 151.654,157.894 151.573 C 157.307 151.492,156.481 151.171,156.057 150.858 C 155.633 150.545,155.166 150.289,155.020 150.289 C 154.010 150.289,153.431 142.196,154.373 141.256 C 154.663 140.967,157.225 142.008,157.225 142.415 C 157.225 142.528,157.720 142.792,158.324 143.002 C 158.928 143.212,159.886 143.611,160.453 143.888 C 162.112 144.700,167.801 144.649,168.605 143.815 C 168.912 143.497,169.348 143.132,169.575 143.003 C 169.883 142.828,170.018 142.374,170.113 141.193 L 170.240 139.617 168.877 138.338 C 168.128 137.634,167.098 136.854,166.590 136.605 C 166.081 136.356,165.040 135.800,164.277 135.370 C 163.514 134.939,162.526 134.417,162.081 134.208 C 159.299 132.904,155.376 129.364,155.376 128.158 C 155.376 128.079,155.053 127.350,154.657 126.539 C 153.737 124.650,153.705 120.543,154.599 119.075 C 154.870 118.630,155.170 118.006,155.265 117.688 C 155.423 117.159,156.284 115.962,157.075 115.171 C 158.284 113.963,159.104 113.295,159.379 113.295 C 159.554 113.295,159.939 113.086,160.234 112.830 C 160.529 112.574,161.265 112.218,161.870 112.039 C 162.475 111.859,163.212 111.579,163.508 111.416 C 164.842 110.681,174.438 110.587,175.230 111.301 M209.176 111.251 C 209.407 111.452,210.168 111.750,210.867 111.912 C 211.566 112.073,212.433 112.451,212.792 112.750 C 213.152 113.050,213.597 113.295,213.783 113.295 C 214.092 113.295,214.913 113.975,216.425 115.484 C 216.748 115.806,217.112 116.071,217.234 116.074 C 217.506 116.079,218.960 117.799,218.960 118.115 C 218.960 118.240,219.263 118.629,219.635 118.980 C 220.019 119.342,220.376 119.974,220.462 120.444 C 220.546 120.899,220.853 121.532,221.144 121.850 C 221.469 122.203,221.729 122.856,221.816 123.530 C 221.894 124.137,222.191 125.125,222.476 125.727 C 223.251 127.361,223.272 134.991,222.506 136.763 C 222.232 137.399,221.935 138.439,221.846 139.075 C 221.758 139.711,221.447 140.595,221.155 141.040 C 220.863 141.486,220.548 142.110,220.454 142.428 C 220.360 142.746,220.038 143.300,219.737 143.659 C 219.437 144.019,219.191 144.464,219.191 144.649 C 219.191 145.174,215.729 148.462,214.689 148.925 C 214.176 149.154,213.626 149.554,213.466 149.815 C 213.306 150.076,213.079 150.289,212.961 150.289 C 212.843 150.289,212.482 150.390,212.157 150.513 L 211.568 150.737 212.142 151.312 C 212.458 151.628,212.717 151.995,212.717 152.128 C 212.717 152.261,212.847 152.372,213.006 152.374 C 213.165 152.377,214.075 153.173,215.029 154.143 C 215.983 155.113,217.283 156.298,217.919 156.776 C 218.555 157.253,219.530 158.122,220.087 158.707 C 220.643 159.291,221.190 159.769,221.301 159.769 C 221.624 159.769,221.534 161.025,221.175 161.517 C 220.288 162.731,209.886 162.149,209.219 160.848 C 208.963 160.349,208.547 159.855,207.341 158.617 C 206.991 158.258,206.705 157.882,206.705 157.781 C 206.705 157.680,206.055 156.946,205.260 156.150 C 204.465 155.354,203.425 154.282,202.948 153.767 C 202.471 153.253,201.877 152.832,201.627 152.832 C 201.377 152.832,200.625 152.616,199.955 152.352 C 199.285 152.088,198.164 151.766,197.465 151.637 C 196.766 151.508,195.775 151.164,195.264 150.873 C 194.753 150.582,194.068 150.282,193.742 150.207 C 193.416 150.132,192.896 149.850,192.586 149.580 C 192.276 149.310,191.730 148.936,191.372 148.750 C 190.119 148.099,186.797 144.375,186.218 142.972 C 186.016 142.482,185.714 141.925,185.548 141.734 C 185.381 141.543,185.127 140.919,184.981 140.347 C 184.836 139.775,184.489 138.786,184.209 138.150 C 183.374 136.254,183.458 127.158,184.328 125.318 C 184.658 124.618,184.998 123.610,185.084 123.077 C 185.169 122.544,185.388 121.984,185.570 121.832 C 185.752 121.681,186.109 121.129,186.362 120.605 C 187.164 118.946,190.519 114.939,191.120 114.921 C 191.259 114.917,191.572 114.690,191.814 114.417 C 192.056 114.145,192.723 113.715,193.295 113.464 C 193.867 113.212,194.491 112.874,194.682 112.712 C 194.873 112.549,195.601 112.258,196.301 112.064 C 197.000 111.871,198.145 111.493,198.844 111.225 C 200.508 110.588,208.440 110.608,209.176 111.251 M237.910 112.064 C 238.394 112.680,238.397 112.763,238.373 127.783 C 238.360 136.088,238.415 142.988,238.495 143.118 C 238.588 143.268,241.036 143.353,245.296 143.353 C 253.534 143.353,252.802 142.932,252.906 147.728 C 252.966 150.489,252.917 151.183,252.644 151.410 C 252.123 151.842,229.351 151.683,228.821 151.243 C 228.354 150.855,228.222 113.208,228.686 112.342 C 229.087 111.592,229.750 111.475,233.683 111.460 L 237.423 111.445 237.910 112.064 M201.156 119.486 C 200.965 119.578,200.549 119.825,200.231 120.035 C 199.913 120.245,199.304 120.490,198.878 120.579 C 198.135 120.734,196.301 122.291,196.301 122.767 C 196.301 122.889,195.989 123.344,195.609 123.778 C 195.084 124.376,194.834 124.998,194.574 126.356 C 194.386 127.341,194.110 128.292,193.962 128.471 C 193.511 129.015,193.442 132.880,193.858 134.335 C 194.057 135.035,194.393 136.334,194.604 137.222 C 195.036 139.037,196.039 140.518,197.914 142.102 C 199.936 143.812,206.431 144.075,208.092 142.514 C 209.804 140.906,210.459 140.158,210.751 139.480 C 210.929 139.066,211.176 138.728,211.300 138.728 C 212.769 138.728,212.731 125.546,211.257 124.305 C 210.937 124.035,210.612 123.595,210.535 123.327 C 210.372 122.762,207.743 120.462,207.260 120.462 C 207.082 120.462,206.703 120.228,206.417 119.942 C 205.877 119.402,202.022 119.067,201.156 119.486 " stroke="none" fill="#147fc2" fill-rule="evenodd"></path><path id="path1" d="M0.000 115.607 L 0.000 231.214 200.000 231.214 L 400.000 231.214 400.000 115.607 L 400.000 0.000 200.000 0.000 L 0.000 0.000 0.000 115.607 M209.133 40.467 C 213.149 40.608,215.953 40.815,216.994 41.046 C 217.884 41.243,220.054 41.560,221.817 41.750 C 223.579 41.940,225.347 42.232,225.747 42.399 C 226.621 42.763,227.609 42.957,229.995 43.232 C 230.983 43.346,232.260 43.643,232.832 43.893 C 233.405 44.143,234.341 44.419,234.913 44.508 C 235.486 44.596,236.282 44.857,236.683 45.088 C 237.084 45.318,237.988 45.627,238.692 45.773 C 239.396 45.919,240.216 46.231,240.514 46.465 C 240.813 46.700,241.491 47.009,242.021 47.151 C 242.551 47.294,243.142 47.568,243.334 47.760 C 243.526 47.952,244.077 48.273,244.558 48.473 C 247.855 49.843,250.602 54.331,249.485 56.522 C 249.233 57.015,248.919 57.748,248.786 58.151 C 248.485 59.062,244.914 62.197,244.178 62.197 C 244.061 62.197,243.669 62.446,243.306 62.752 C 242.943 63.057,242.197 63.428,241.647 63.576 C 241.098 63.724,240.047 64.150,239.313 64.524 C 238.578 64.897,237.906 65.202,237.818 65.202 C 237.731 65.202,237.115 65.460,236.450 65.775 C 235.784 66.089,234.568 66.445,233.747 66.564 C 232.926 66.684,231.786 66.992,231.214 67.248 C 230.596 67.525,229.145 67.825,227.641 67.987 C 226.248 68.137,224.895 68.394,224.635 68.558 C 224.091 68.903,223.034 69.050,218.844 69.365 C 217.087 69.498,215.406 69.757,214.798 69.990 C 213.238 70.587,186.815 70.593,185.195 69.997 C 184.085 69.588,183.511 69.515,178.382 69.120 C 176.175 68.951,174.850 68.736,174.220 68.447 C 173.711 68.214,172.514 67.952,171.561 67.867 C 170.607 67.781,169.358 67.502,168.786 67.246 C 168.214 66.991,167.070 66.683,166.243 66.563 C 164.760 66.347,164.225 66.147,161.040 64.617 C 160.150 64.189,158.954 63.720,158.382 63.575 C 157.809 63.430,157.133 63.126,156.879 62.899 C 156.624 62.673,156.151 62.344,155.826 62.169 C 150.889 59.499,148.854 55.777,150.694 52.782 C 151.734 51.088,153.914 49.122,155.376 48.559 C 155.821 48.388,156.352 48.107,156.555 47.934 C 157.238 47.356,160.140 46.034,161.290 45.777 C 161.916 45.638,162.660 45.372,162.943 45.187 C 163.227 45.002,164.193 44.697,165.091 44.508 C 165.989 44.319,167.036 44.003,167.418 43.805 C 167.800 43.607,168.943 43.351,169.957 43.235 C 172.407 42.956,173.373 42.766,174.290 42.383 C 174.710 42.208,176.479 41.917,178.220 41.736 C 179.962 41.556,182.166 41.241,183.117 41.037 C 186.221 40.370,198.669 40.097,209.133 40.467 M138.457 60.225 C 138.788 60.326,139.154 60.757,139.412 61.351 C 140.060 62.839,143.579 66.179,145.634 67.255 C 145.969 67.431,146.451 67.756,146.705 67.978 C 146.960 68.201,147.549 68.505,148.016 68.654 C 148.483 68.803,148.990 69.076,149.142 69.260 C 149.295 69.443,149.945 69.750,150.586 69.940 C 151.228 70.131,151.934 70.450,152.154 70.650 C 152.374 70.849,153.083 71.152,153.728 71.322 C 154.374 71.492,155.242 71.840,155.659 72.096 C 156.075 72.351,156.936 72.631,157.572 72.717 C 158.208 72.803,158.997 73.063,159.325 73.293 C 159.653 73.524,160.785 73.876,161.840 74.075 C 162.895 74.274,164.000 74.595,164.296 74.788 C 164.591 74.982,165.846 75.253,167.084 75.391 C 168.323 75.529,169.863 75.844,170.506 76.090 C 171.206 76.358,172.823 76.637,174.530 76.785 C 176.100 76.921,177.921 77.187,178.577 77.377 C 179.718 77.707,180.931 77.809,190.867 78.412 C 199.060 78.909,218.297 78.365,220.854 77.564 C 222.003 77.205,224.139 76.890,227.129 76.640 C 228.125 76.557,229.374 76.298,229.904 76.065 C 230.434 75.832,231.875 75.530,233.107 75.393 C 234.497 75.240,235.638 74.978,236.113 74.704 C 236.534 74.462,237.451 74.193,238.150 74.107 C 238.850 74.021,239.890 73.712,240.462 73.420 C 241.035 73.129,241.971 72.813,242.543 72.718 C 243.116 72.624,244.000 72.308,244.509 72.018 C 245.017 71.727,245.866 71.420,246.394 71.335 C 246.922 71.250,247.686 70.936,248.092 70.636 C 248.499 70.336,249.239 70.022,249.737 69.938 C 250.245 69.852,250.738 69.606,250.861 69.376 C 250.981 69.151,251.550 68.835,252.125 68.674 C 252.700 68.513,253.295 68.232,253.447 68.048 C 253.599 67.865,254.015 67.564,254.372 67.380 C 255.877 66.602,259.947 62.529,260.626 61.121 C 261.249 59.832,261.536 59.686,262.182 60.332 L 262.659 60.809 262.659 119.757 C 262.659 179.469,262.644 180.613,261.831 181.287 C 261.648 181.439,261.303 181.992,261.066 182.516 C 260.404 183.977,257.505 186.714,254.914 188.324 C 254.504 188.578,253.816 189.020,253.385 189.305 C 252.954 189.591,252.444 189.825,252.252 189.826 C 252.060 189.826,251.782 190.020,251.634 190.257 C 251.486 190.494,250.887 190.808,250.303 190.955 C 249.718 191.102,249.039 191.423,248.795 191.668 C 248.550 191.913,247.954 192.180,247.470 192.263 C 246.986 192.346,246.307 192.612,245.962 192.855 C 245.617 193.098,244.723 193.439,243.975 193.613 C 243.227 193.788,242.338 194.112,241.999 194.335 C 241.660 194.557,240.583 194.889,239.607 195.074 C 238.631 195.258,237.520 195.570,237.140 195.767 C 236.759 195.964,235.681 196.220,234.744 196.336 C 233.807 196.452,232.522 196.752,231.888 197.002 C 231.254 197.252,229.724 197.566,228.489 197.700 C 227.253 197.833,225.514 198.143,224.624 198.388 C 223.571 198.677,221.269 198.951,218.035 199.171 C 215.301 199.357,211.994 199.681,210.688 199.890 C 208.666 200.213,207.770 200.233,204.676 200.024 C 198.875 199.632,198.490 199.615,189.017 199.337 C 179.529 199.059,176.124 198.811,175.577 198.357 C 175.395 198.206,173.847 197.944,172.137 197.775 C 170.426 197.605,168.635 197.300,168.155 197.095 C 167.676 196.891,166.295 196.574,165.087 196.392 C 163.694 196.181,162.661 195.892,162.264 195.602 C 161.919 195.350,161.347 195.142,160.992 195.139 C 159.973 195.130,158.308 194.687,157.898 194.316 C 157.692 194.130,156.877 193.863,156.088 193.724 C 155.198 193.568,154.404 193.262,153.998 192.921 C 153.638 192.618,153.121 192.370,152.849 192.370 C 152.180 192.370,150.751 191.755,150.751 191.467 C 150.751 191.339,150.380 191.165,149.926 191.080 C 149.471 190.995,148.821 190.693,148.481 190.409 C 148.140 190.126,147.471 189.766,146.995 189.611 C 146.518 189.456,145.998 189.144,145.839 188.917 C 145.680 188.691,145.290 188.424,144.974 188.324 C 143.819 187.959,139.548 184.020,138.856 182.682 C 138.645 182.274,138.279 181.747,138.043 181.511 C 137.753 181.221,137.572 180.605,137.485 179.616 C 137.227 176.669,136.996 130.970,137.062 95.838 C 137.100 76.000,137.126 59.675,137.120 59.560 C 137.114 59.444,137.292 59.510,137.514 59.706 C 137.737 59.901,138.161 60.135,138.457 60.225 M166.243 111.713 C 165.925 111.845,164.741 112.145,163.611 112.380 C 162.399 112.633,161.357 112.992,161.068 113.256 C 160.799 113.503,160.335 113.778,160.038 113.868 C 158.462 114.347,156.175 117.083,155.591 119.190 C 155.369 119.989,155.074 120.856,154.935 121.116 C 154.546 121.843,154.643 123.938,155.113 124.973 C 155.345 125.483,155.612 126.312,155.706 126.814 C 155.903 127.862,156.548 128.761,158.474 130.667 C 159.826 132.006,160.371 132.371,162.717 133.509 C 163.384 133.833,163.931 134.202,163.931 134.329 C 163.931 134.456,164.402 134.679,164.979 134.824 C 165.555 134.969,166.155 135.271,166.312 135.495 C 166.469 135.719,166.960 136.057,167.403 136.246 C 167.846 136.435,168.520 136.862,168.902 137.196 C 169.283 137.530,169.671 137.803,169.763 137.803 C 170.064 137.804,170.714 139.283,170.879 140.341 C 171.094 141.717,170.638 142.959,169.494 144.114 L 168.592 145.025 166.088 145.136 C 163.017 145.271,160.151 144.935,159.330 144.342 C 158.999 144.103,158.288 143.779,157.749 143.622 C 157.211 143.465,156.661 143.132,156.527 142.882 C 156.363 142.575,156.043 142.428,155.541 142.428 L 154.798 142.428 154.798 145.919 L 154.798 149.410 155.887 149.824 C 156.485 150.051,157.134 150.395,157.327 150.589 C 158.411 151.672,171.019 151.523,172.247 150.411 C 172.463 150.216,173.177 149.896,173.834 149.701 C 174.491 149.506,175.029 149.245,175.029 149.120 C 175.029 148.996,175.385 148.724,175.820 148.517 C 176.255 148.309,176.664 147.939,176.728 147.694 C 176.792 147.449,177.059 147.193,177.322 147.124 C 177.639 147.041,177.883 146.692,178.045 146.088 C 178.180 145.588,178.519 144.949,178.798 144.670 C 179.281 144.188,179.306 143.968,179.306 140.333 L 179.306 136.505 178.671 135.749 C 178.321 135.333,178.035 134.882,178.035 134.747 C 178.035 134.399,174.825 131.329,174.461 131.329 C 174.296 131.329,174.019 131.159,173.847 130.951 C 173.674 130.743,173.072 130.375,172.508 130.134 C 171.945 129.892,171.371 129.554,171.233 129.381 C 171.095 129.209,170.566 128.940,170.058 128.783 C 169.549 128.626,168.925 128.317,168.671 128.096 C 168.416 127.875,167.855 127.576,167.424 127.431 C 166.663 127.177,166.375 126.958,165.027 125.609 C 163.487 124.070,163.400 123.928,163.290 122.780 C 163.181 121.649,163.550 120.231,163.953 120.231 C 164.061 120.231,164.309 119.923,164.504 119.546 C 164.765 119.042,165.118 118.796,165.840 118.615 C 166.379 118.479,167.097 118.215,167.435 118.028 C 168.258 117.572,170.872 117.586,171.973 118.052 C 172.446 118.253,173.440 118.517,174.183 118.639 C 174.925 118.761,175.810 119.063,176.148 119.311 C 176.486 119.558,177.023 119.788,177.341 119.822 L 177.919 119.884 177.919 116.493 C 177.919 112.472,178.208 112.876,174.954 112.348 C 173.503 112.112,172.035 111.813,171.692 111.682 C 170.892 111.378,167.000 111.400,166.243 111.713 M200.478 111.808 C 200.041 111.997,198.862 112.295,197.858 112.469 C 196.722 112.666,195.844 112.958,195.531 113.241 C 195.255 113.492,194.726 113.768,194.356 113.856 C 193.986 113.944,193.312 114.322,192.858 114.696 C 192.405 115.070,191.903 115.376,191.745 115.376 C 191.586 115.376,191.288 115.632,191.083 115.945 C 190.878 116.258,190.537 116.570,190.326 116.638 C 190.115 116.706,189.765 117.074,189.548 117.456 C 189.332 117.838,189.014 118.150,188.843 118.150 C 188.672 118.150,188.397 118.525,188.231 118.983 C 188.065 119.441,187.725 120.020,187.475 120.271 C 187.225 120.521,186.869 121.155,186.683 121.681 C 186.498 122.206,186.201 122.797,186.025 122.994 C 185.848 123.191,185.590 123.977,185.453 124.740 C 185.315 125.503,184.995 126.855,184.740 127.745 C 184.029 130.233,184.082 134.587,184.852 136.763 C 185.166 137.653,185.428 138.746,185.433 139.191 C 185.439 139.696,185.701 140.383,186.131 141.017 C 186.511 141.577,186.821 142.212,186.821 142.428 C 186.821 142.645,187.130 143.145,187.508 143.540 C 187.886 143.936,188.260 144.520,188.340 144.838 C 188.420 145.156,188.689 145.482,188.939 145.561 C 189.188 145.640,189.495 145.931,189.621 146.208 C 189.747 146.484,190.131 146.892,190.474 147.113 C 191.755 147.939,192.732 148.642,193.234 149.101 C 193.519 149.361,194.143 149.642,194.622 149.725 C 195.100 149.808,195.855 150.116,196.301 150.409 C 196.858 150.775,197.743 151.022,199.145 151.203 C 201.786 151.544,202.084 151.672,203.402 153.033 C 204.011 153.661,205.107 154.794,205.838 155.550 C 206.569 156.305,207.168 156.993,207.168 157.078 C 207.168 157.162,207.662 157.725,208.266 158.329 C 208.870 158.932,209.549 159.711,209.774 160.060 L 210.184 160.694 215.021 160.694 C 220.733 160.694,220.697 160.714,218.541 158.656 C 209.593 150.111,209.946 150.568,211.696 149.794 C 212.279 149.536,212.955 149.126,213.199 148.882 C 213.442 148.639,213.794 148.439,213.981 148.439 C 214.528 148.439,218.415 144.484,218.810 143.526 C 219.006 143.049,219.263 142.659,219.380 142.659 C 219.497 142.659,219.726 142.186,219.887 141.608 C 220.049 141.029,220.383 140.301,220.629 139.988 C 220.937 139.596,221.180 138.650,221.412 136.935 C 221.597 135.569,221.874 134.139,222.027 133.757 C 222.590 132.359,221.467 124.261,220.468 122.514 C 220.150 121.958,219.889 121.335,219.887 121.130 C 219.886 120.925,219.572 120.364,219.191 119.884 C 218.809 119.404,218.497 118.876,218.497 118.710 C 218.497 118.544,218.313 118.272,218.088 118.106 C 217.864 117.939,217.497 117.517,217.274 117.168 C 217.051 116.818,216.737 116.532,216.578 116.532 C 216.418 116.532,216.006 116.246,215.661 115.896 C 214.283 114.499,213.907 114.208,213.154 113.956 C 212.723 113.811,212.149 113.494,211.879 113.250 C 211.558 112.960,210.576 112.665,209.039 112.395 C 207.746 112.169,206.568 111.862,206.420 111.714 C 206.011 111.306,201.469 111.378,200.478 111.808 M230.114 112.558 C 229.884 112.707,229.836 116.712,229.883 131.806 L 229.942 150.867 241.105 150.927 L 252.268 150.987 252.203 147.921 L 252.139 144.855 245.202 144.728 C 241.387 144.658,238.244 144.580,238.216 144.554 C 237.618 144.003,237.568 142.917,237.457 127.977 L 237.341 112.486 233.873 112.428 C 231.965 112.396,230.274 112.455,230.114 112.558 M207.519 119.467 C 209.463 120.714,210.841 121.932,211.129 122.659 C 211.280 123.040,211.636 123.613,211.921 123.931 C 212.205 124.249,212.514 124.975,212.607 125.544 C 212.699 126.114,212.944 126.837,213.151 127.152 C 213.771 128.097,213.831 134.188,213.233 135.539 C 212.985 136.099,212.710 137.045,212.620 137.641 C 212.531 138.238,212.218 139.013,211.925 139.363 C 211.632 139.713,211.321 140.230,211.233 140.512 C 211.013 141.214,208.353 143.510,207.516 143.720 C 207.141 143.814,206.495 144.091,206.079 144.336 C 205.080 144.926,200.777 144.861,200.081 144.245 C 199.846 144.037,199.308 143.793,198.886 143.703 C 197.488 143.406,194.707 140.308,194.223 138.508 C 194.083 137.989,193.768 137.225,193.522 136.809 C 192.606 135.255,192.688 127.535,193.632 126.481 C 193.807 126.286,194.024 125.711,194.115 125.202 C 194.293 124.206,194.570 123.555,195.048 123.006 C 196.526 121.307,197.892 120.000,198.190 120.000 C 198.388 120.000,198.827 119.782,199.166 119.516 C 200.719 118.294,205.645 118.265,207.519 119.467 " stroke="none" fill="#fbfbfb" fill-rule="evenodd"></path><path id="path2" d="M192.601 40.600 C 188.838 40.752,183.363 41.185,182.662 41.386 C 182.274 41.498,180.756 41.707,179.288 41.852 C 177.820 41.996,176.079 42.266,175.419 42.451 C 174.760 42.636,173.201 42.941,171.957 43.128 C 170.712 43.316,168.644 43.781,167.360 44.162 C 166.077 44.544,164.856 44.855,164.649 44.855 C 164.441 44.855,163.908 45.047,163.465 45.281 C 163.022 45.515,162.190 45.823,161.616 45.964 C 159.169 46.568,153.490 49.726,152.119 51.245 C 149.225 54.453,149.981 57.952,154.220 60.966 C 156.637 62.686,163.571 65.601,167.283 66.460 C 168.046 66.636,169.555 66.993,170.636 67.252 C 174.418 68.160,179.072 68.945,181.837 69.142 C 183.370 69.251,185.405 69.476,186.358 69.641 C 188.792 70.064,211.526 70.061,213.526 69.638 C 214.289 69.476,216.370 69.248,218.150 69.131 C 219.931 69.013,221.908 68.756,222.543 68.558 C 223.179 68.361,224.840 68.045,226.234 67.856 C 232.107 67.061,242.624 63.421,245.227 61.283 C 245.622 60.959,246.466 60.291,247.102 59.799 C 251.609 56.314,249.509 50.974,242.312 47.623 C 241.740 47.357,240.751 46.893,240.116 46.593 C 239.480 46.293,238.595 45.974,238.150 45.885 C 237.705 45.797,236.977 45.541,236.532 45.318 C 236.087 45.095,235.358 44.839,234.913 44.750 C 234.468 44.662,233.272 44.344,232.254 44.046 C 231.237 43.747,229.364 43.341,228.092 43.143 C 226.821 42.945,225.208 42.624,224.509 42.429 C 223.809 42.234,222.054 41.971,220.608 41.843 C 219.163 41.716,217.895 41.559,217.791 41.495 C 216.822 40.896,200.034 40.300,192.601 40.600 M210.289 59.428 C 216.913 59.660,218.053 59.753,218.931 60.137 C 219.488 60.379,220.476 60.581,221.128 60.585 C 222.976 60.596,225.601 60.993,227.146 61.494 C 227.921 61.745,229.543 62.064,230.751 62.201 C 231.959 62.339,233.260 62.616,233.641 62.817 C 234.023 63.019,235.012 63.302,235.838 63.447 C 237.774 63.786,237.863 64.266,236.069 64.702 C 235.370 64.872,234.637 65.154,234.441 65.330 C 234.245 65.506,233.063 65.803,231.815 65.991 C 230.451 66.196,229.379 66.483,229.127 66.711 C 228.814 66.994,227.958 67.140,225.741 67.287 C 222.611 67.495,222.102 67.599,221.437 68.171 C 221.100 68.460,219.565 68.583,213.113 68.840 C 208.762 69.012,203.277 69.241,200.925 69.348 C 198.444 69.461,195.919 69.454,194.913 69.333 C 193.960 69.218,190.734 69.029,187.746 68.913 C 180.453 68.632,178.948 68.501,178.515 68.110 C 178.013 67.658,177.427 67.549,174.134 67.294 C 172.044 67.132,171.160 66.970,170.854 66.693 C 170.591 66.455,169.614 66.209,168.230 66.031 C 166.883 65.859,165.865 65.605,165.614 65.380 C 165.387 65.177,164.630 64.872,163.931 64.702 C 162.133 64.265,162.224 63.782,164.162 63.462 C 164.988 63.325,165.931 63.037,166.257 62.822 C 166.633 62.574,167.730 62.345,169.263 62.194 C 170.590 62.063,172.249 61.758,172.948 61.516 C 173.647 61.273,175.520 60.958,177.110 60.815 C 178.856 60.658,180.458 60.376,181.156 60.103 C 183.078 59.352,198.124 59.003,210.289 59.428 " stroke="none" fill="#b9c444" fill-rule="evenodd"></path><path id="path3" d="M187.861 59.479 C 183.177 59.624,182.132 59.722,181.156 60.103 C 180.458 60.376,178.856 60.658,177.110 60.815 C 175.520 60.958,173.647 61.273,172.948 61.516 C 172.249 61.758,170.590 62.063,169.263 62.194 C 167.730 62.345,166.633 62.574,166.257 62.822 C 165.931 63.037,164.988 63.325,164.162 63.462 C 162.224 63.782,162.133 64.265,163.931 64.702 C 164.630 64.872,165.387 65.177,165.614 65.380 C 165.865 65.605,166.883 65.859,168.230 66.031 C 169.614 66.209,170.591 66.455,170.854 66.693 C 171.160 66.970,172.044 67.132,174.134 67.294 C 177.427 67.549,178.013 67.658,178.515 68.110 C 178.948 68.501,180.453 68.632,187.746 68.913 C 190.734 69.029,193.960 69.218,194.913 69.333 C 195.919 69.454,198.444 69.461,200.925 69.348 C 203.277 69.241,208.762 69.012,213.113 68.840 C 219.565 68.583,221.100 68.460,221.437 68.171 C 222.102 67.599,222.611 67.495,225.741 67.287 C 227.958 67.140,228.814 66.994,229.127 66.711 C 229.379 66.483,230.451 66.196,231.815 65.991 C 233.063 65.803,234.245 65.506,234.441 65.330 C 234.637 65.154,235.370 64.872,236.069 64.702 C 237.863 64.266,237.774 63.786,235.838 63.447 C 235.012 63.302,234.023 63.019,233.641 62.817 C 233.260 62.616,231.959 62.339,230.751 62.201 C 229.543 62.064,227.921 61.745,227.146 61.494 C 225.601 60.993,222.976 60.596,221.128 60.585 C 220.476 60.581,219.488 60.379,218.931 60.137 C 217.059 59.320,202.735 59.017,187.861 59.479 " stroke="none" fill="#69bd14" fill-rule="evenodd"></path><path id="path4" d="M197.399 40.404 C 198.829 40.444,201.171 40.444,202.601 40.404 C 204.032 40.363,202.861 40.330,200.000 40.330 C 197.139 40.330,195.968 40.363,197.399 40.404 M185.549 40.709 C 184.405 40.809,182.844 41.052,182.081 41.251 C 180.617 41.632,180.996 41.618,184.319 41.166 C 185.423 41.016,188.180 40.813,190.446 40.713 L 194.566 40.533 191.098 40.531 C 189.191 40.529,186.694 40.610,185.549 40.709 M209.827 40.691 C 213.746 40.859,216.080 41.107,218.497 41.612 C 219.069 41.732,220.058 41.820,220.694 41.808 C 221.756 41.789,221.718 41.772,220.231 41.602 C 219.341 41.500,217.884 41.249,216.994 41.045 C 215.868 40.786,213.900 40.649,210.520 40.593 L 205.665 40.513 209.827 40.691 M178.786 41.784 C 179.136 41.837,179.708 41.837,180.058 41.784 C 180.408 41.731,180.121 41.688,179.422 41.688 C 178.723 41.688,178.436 41.731,178.786 41.784 M174.913 42.222 C 174.277 42.410,173.445 42.653,173.064 42.761 L 172.370 42.958 172.991 42.982 C 173.332 42.995,173.904 42.891,174.262 42.750 C 174.620 42.610,175.642 42.359,176.532 42.193 C 178.005 41.919,178.057 41.891,177.110 41.886 C 176.538 41.883,175.549 42.035,174.913 42.222 M223.584 42.179 C 224.410 42.356,225.380 42.615,225.738 42.754 C 226.096 42.892,226.668 42.994,227.009 42.979 C 227.475 42.959,227.515 42.927,227.168 42.849 C 226.913 42.793,226.330 42.604,225.872 42.429 C 225.413 42.254,224.373 42.054,223.559 41.984 L 222.081 41.857 223.584 42.179 M168.310 43.456 C 167.985 43.555,167.497 43.754,167.227 43.899 C 166.957 44.043,165.998 44.317,165.097 44.506 C 164.196 44.696,163.227 45.002,162.943 45.187 C 162.660 45.372,161.916 45.638,161.290 45.777 C 160.140 46.034,157.238 47.356,156.555 47.934 C 156.352 48.107,155.821 48.388,155.376 48.559 C 152.705 49.588,150.058 52.870,150.058 55.154 C 150.058 57.122,151.987 60.002,154.004 61.043 C 154.458 61.277,154.964 61.633,155.130 61.833 C 155.297 62.033,155.538 62.197,155.667 62.197 C 155.796 62.197,155.509 61.884,155.029 61.503 C 154.549 61.121,154.083 60.809,153.993 60.809 C 153.538 60.809,151.650 58.658,150.985 57.382 C 149.875 55.249,150.228 53.342,152.119 51.245 C 153.498 49.718,159.204 46.549,161.616 45.972 C 162.190 45.835,162.867 45.595,163.121 45.439 C 163.376 45.282,164.676 44.865,166.012 44.511 C 170.469 43.330,170.655 43.267,169.711 43.272 C 169.266 43.275,168.636 43.358,168.310 43.456 M229.827 43.401 C 230.145 43.457,231.237 43.747,232.254 44.046 C 233.272 44.345,234.468 44.662,234.913 44.750 C 235.358 44.839,236.087 45.095,236.532 45.318 C 236.977 45.541,237.705 45.797,238.150 45.885 C 238.595 45.974,239.480 46.293,240.116 46.593 C 240.751 46.893,241.740 47.357,242.312 47.623 C 248.271 50.398,250.368 53.505,248.869 57.342 C 248.372 58.614,248.045 59.071,247.108 59.799 C 244.180 62.075,243.125 63.116,245.489 61.396 C 247.453 59.967,248.539 58.899,248.786 58.151 C 248.919 57.748,249.233 57.015,249.485 56.522 C 250.602 54.331,247.855 49.843,244.558 48.473 C 244.077 48.273,243.526 47.952,243.334 47.760 C 243.142 47.568,242.558 47.296,242.037 47.156 C 241.515 47.015,240.818 46.704,240.487 46.464 C 240.155 46.224,239.364 45.917,238.728 45.781 C 238.092 45.646,237.156 45.336,236.647 45.093 C 236.139 44.850,235.098 44.499,234.335 44.315 C 233.572 44.130,232.532 43.817,232.023 43.618 C 231.514 43.420,230.682 43.267,230.173 43.279 C 229.572 43.293,229.450 43.335,229.827 43.401 M137.120 59.560 C 137.126 59.675,137.100 76.000,137.062 95.838 C 136.996 130.970,137.227 176.669,137.485 179.616 C 137.572 180.605,137.753 181.221,138.043 181.511 C 138.279 181.747,138.645 182.274,138.856 182.682 C 139.548 184.020,143.819 187.959,144.974 188.324 C 145.290 188.424,145.680 188.691,145.839 188.917 C 145.998 189.144,146.518 189.456,146.995 189.611 C 147.471 189.766,148.140 190.126,148.481 190.409 C 148.821 190.693,149.471 190.995,149.926 191.080 C 150.380 191.165,150.751 191.339,150.751 191.467 C 150.751 191.755,152.180 192.370,152.849 192.370 C 153.121 192.370,153.638 192.618,153.998 192.921 C 154.404 193.262,155.198 193.568,156.088 193.724 C 156.877 193.863,157.692 194.130,157.898 194.316 C 158.308 194.687,159.973 195.130,160.992 195.139 C 161.347 195.142,161.919 195.350,162.264 195.602 C 162.661 195.892,163.694 196.181,165.087 196.392 C 166.295 196.574,167.676 196.891,168.155 197.095 C 168.635 197.300,170.426 197.605,172.137 197.775 C 173.847 197.944,175.395 198.206,175.577 198.357 C 176.124 198.811,179.529 199.059,189.017 199.337 C 198.490 199.615,198.875 199.632,204.676 200.024 C 207.770 200.233,208.666 200.213,210.688 199.890 C 211.994 199.681,215.301 199.357,218.035 199.171 C 221.269 198.951,223.571 198.677,224.624 198.388 C 225.514 198.143,227.253 197.833,228.489 197.700 C 229.724 197.566,231.254 197.252,231.888 197.002 C 232.522 196.752,233.807 196.452,234.744 196.336 C 235.681 196.220,236.759 195.964,237.140 195.767 C 237.520 195.570,238.631 195.258,239.607 195.074 C 240.583 194.889,241.660 194.557,241.999 194.335 C 242.338 194.112,243.227 193.788,243.975 193.613 C 244.723 193.439,245.617 193.098,245.962 192.855 C 246.307 192.612,246.986 192.346,247.470 192.263 C 247.954 192.180,248.550 191.913,248.795 191.668 C 249.039 191.423,249.718 191.102,250.303 190.955 C 250.887 190.808,251.486 190.494,251.634 190.257 C 251.782 190.020,252.060 189.826,252.252 189.826 C 252.444 189.825,252.954 189.591,253.385 189.305 C 253.816 189.020,254.504 188.578,254.914 188.324 C 257.505 186.714,260.404 183.977,261.066 182.516 C 261.303 181.992,261.648 181.439,261.831 181.287 C 262.644 180.613,262.659 179.469,262.659 119.757 L 262.659 60.809 262.182 60.332 C 261.536 59.686,261.249 59.832,260.626 61.121 C 259.947 62.529,255.877 66.602,254.372 67.380 C 254.015 67.564,253.599 67.865,253.447 68.048 C 253.295 68.232,252.700 68.513,252.125 68.674 C 251.550 68.835,250.981 69.151,250.861 69.376 C 250.738 69.606,250.245 69.852,249.737 69.938 C 249.239 70.022,248.499 70.336,248.092 70.636 C 247.686 70.936,246.922 71.250,246.394 71.335 C 245.866 71.420,245.017 71.727,244.509 72.018 C 244.000 72.308,243.116 72.624,242.543 72.718 C 241.971 72.813,241.035 73.129,240.462 73.420 C 239.890 73.712,238.850 74.021,238.150 74.107 C 237.451 74.193,236.534 74.462,236.113 74.704 C 235.638 74.978,234.497 75.240,233.107 75.393 C 231.875 75.530,230.434 75.832,229.904 76.065 C 229.374 76.298,228.125 76.557,227.129 76.640 C 224.139 76.890,222.003 77.205,220.854 77.564 C 218.297 78.365,199.060 78.909,190.867 78.412 C 180.931 77.809,179.718 77.707,178.577 77.377 C 177.921 77.187,176.100 76.921,174.530 76.785 C 172.823 76.637,171.206 76.358,170.506 76.090 C 169.863 75.844,168.323 75.529,167.084 75.391 C 165.846 75.253,164.591 74.982,164.296 74.788 C 164.000 74.595,162.895 74.274,161.840 74.075 C 160.785 73.876,159.653 73.524,159.325 73.293 C 158.997 73.063,158.208 72.803,157.572 72.717 C 156.936 72.631,156.075 72.351,155.659 72.096 C 155.242 71.840,154.374 71.492,153.728 71.322 C 153.083 71.152,152.374 70.849,152.154 70.650 C 151.934 70.450,151.228 70.131,150.586 69.940 C 149.945 69.750,149.295 69.443,149.142 69.260 C 148.990 69.076,148.483 68.803,148.016 68.654 C 147.549 68.505,146.960 68.201,146.705 67.978 C 146.451 67.756,145.969 67.431,145.634 67.255 C 143.579 66.179,140.060 62.839,139.412 61.351 C 139.154 60.757,138.788 60.326,138.457 60.225 C 138.161 60.135,137.737 59.901,137.514 59.706 C 137.292 59.510,137.114 59.444,137.120 59.560 M261.965 120.693 L 261.965 179.332 261.399 180.099 C 261.088 180.521,260.769 181.159,260.690 181.518 C 260.512 182.330,255.087 187.746,254.451 187.746 C 254.299 187.746,253.716 188.056,253.156 188.435 C 252.597 188.814,251.971 189.126,251.765 189.129 C 251.560 189.131,251.132 189.337,250.815 189.586 C 250.498 189.836,249.652 190.259,248.935 190.528 C 248.217 190.796,247.630 191.096,247.630 191.193 C 247.630 191.473,246.517 191.908,245.801 191.908 C 245.442 191.908,244.886 192.115,244.564 192.368 C 244.242 192.621,243.318 192.982,242.510 193.170 C 241.702 193.359,240.648 193.714,240.168 193.960 C 239.688 194.206,238.660 194.480,237.884 194.571 C 237.107 194.661,236.030 194.930,235.490 195.169 C 234.949 195.408,233.688 195.717,232.687 195.856 C 231.686 195.995,230.295 196.310,229.595 196.557 C 228.835 196.825,227.116 197.102,225.318 197.246 C 223.665 197.378,221.844 197.629,221.272 197.804 C 218.704 198.586,217.393 198.671,207.399 198.707 C 191.181 198.765,180.619 198.484,178.382 197.933 C 177.364 197.683,175.231 197.357,173.642 197.210 C 172.052 197.062,170.479 196.801,170.145 196.630 C 169.812 196.459,168.486 196.162,167.198 195.969 C 165.910 195.777,164.554 195.463,164.185 195.272 C 163.816 195.081,162.750 194.804,161.815 194.656 C 160.880 194.508,159.794 194.195,159.402 193.961 C 159.009 193.726,157.990 193.388,157.136 193.209 C 156.283 193.031,155.408 192.726,155.191 192.532 C 154.975 192.339,154.173 192.003,153.410 191.786 C 152.647 191.569,151.862 191.250,151.665 191.077 C 151.468 190.905,150.848 190.602,150.287 190.404 C 149.726 190.206,149.211 189.960,149.142 189.858 C 149.074 189.755,148.445 189.388,147.746 189.042 C 147.046 188.695,146.078 188.199,145.595 187.939 C 144.471 187.333,139.492 182.557,139.290 181.891 C 139.206 181.614,138.915 181.145,138.644 180.849 C 138.152 180.311,138.150 180.268,138.034 163.276 C 137.772 125.154,137.782 63.021,138.049 62.254 C 138.372 61.329,138.591 61.307,138.947 62.166 C 139.421 63.312,144.186 67.746,144.942 67.746 C 145.050 67.746,145.532 68.058,146.012 68.439 C 146.492 68.821,147.012 69.133,147.168 69.133 C 147.324 69.133,147.719 69.343,148.046 69.600 C 148.373 69.857,149.084 70.224,149.627 70.416 C 150.169 70.607,150.790 70.924,151.006 71.119 C 151.222 71.315,151.940 71.617,152.601 71.792 C 153.263 71.966,153.975 72.264,154.185 72.453 C 154.395 72.642,155.271 72.960,156.132 73.159 C 156.993 73.359,157.943 73.682,158.243 73.879 C 158.543 74.076,159.449 74.343,160.256 74.473 C 161.063 74.603,162.038 74.900,162.422 75.134 C 162.812 75.371,164.027 75.677,165.165 75.825 C 166.288 75.972,167.693 76.281,168.286 76.512 C 168.879 76.743,170.405 77.058,171.676 77.212 C 172.948 77.367,174.722 77.682,175.619 77.914 C 176.515 78.145,178.648 78.408,180.358 78.497 C 182.069 78.586,184.821 78.813,186.474 79.002 C 188.127 79.190,190.260 79.432,191.214 79.540 C 193.633 79.813,207.487 79.797,210.289 79.518 C 211.561 79.392,213.329 79.192,214.220 79.074 C 215.110 78.956,217.597 78.750,219.748 78.614 C 222.006 78.472,223.959 78.235,224.372 78.053 C 225.591 77.515,225.863 77.461,228.614 77.220 C 230.570 77.049,231.488 76.863,232.031 76.527 C 232.526 76.221,233.379 76.022,234.594 75.929 C 235.626 75.849,236.829 75.597,237.368 75.345 C 237.891 75.102,238.984 74.763,239.795 74.593 C 240.607 74.423,241.679 74.065,242.178 73.798 C 242.676 73.530,243.560 73.243,244.143 73.160 C 244.726 73.077,245.430 72.801,245.709 72.546 C 245.987 72.292,246.709 71.992,247.314 71.879 C 247.918 71.766,248.626 71.477,248.888 71.238 C 249.150 70.998,249.705 70.729,250.121 70.641 C 250.537 70.553,251.165 70.240,251.515 69.945 C 251.865 69.651,252.587 69.292,253.120 69.149 C 253.653 69.005,254.170 68.756,254.270 68.595 C 254.369 68.434,254.826 68.085,255.285 67.820 C 257.035 66.808,260.675 63.169,261.096 62.010 C 261.962 59.628,261.965 59.881,261.965 120.693 M242.428 62.922 C 241.494 63.489,241.402 63.595,241.950 63.473 C 242.323 63.390,242.929 63.069,243.297 62.760 C 244.199 62.000,243.833 62.069,242.428 62.922 M156.885 62.876 C 157.136 63.122,157.653 63.391,158.035 63.473 C 158.652 63.605,158.617 63.556,157.722 63.025 C 156.522 62.313,156.266 62.267,156.885 62.876 M239.191 64.235 C 236.470 65.511,229.811 67.372,226.234 67.856 C 224.840 68.045,223.179 68.361,222.543 68.558 C 221.908 68.756,219.931 69.013,218.150 69.131 C 216.370 69.248,214.289 69.476,213.526 69.638 C 211.526 70.061,188.792 70.064,186.358 69.641 C 185.405 69.476,183.370 69.251,181.837 69.142 C 179.072 68.945,174.415 68.159,170.636 67.252 C 169.555 66.993,168.098 66.649,167.399 66.488 C 165.668 66.090,162.056 64.854,160.901 64.265 C 160.381 64.000,159.906 63.832,159.846 63.892 C 159.746 63.992,160.859 64.561,163.700 65.866 C 164.272 66.129,165.417 66.442,166.243 66.563 C 167.070 66.683,168.214 66.991,168.786 67.246 C 169.358 67.502,170.607 67.781,171.561 67.867 C 172.514 67.952,173.711 68.214,174.220 68.447 C 174.850 68.736,176.175 68.951,178.382 69.120 C 183.511 69.515,184.085 69.588,185.195 69.997 C 186.815 70.593,213.238 70.587,214.798 69.990 C 215.406 69.757,217.087 69.498,218.844 69.365 C 223.034 69.050,224.091 68.903,224.635 68.558 C 224.895 68.394,226.248 68.137,227.641 67.987 C 229.145 67.825,230.596 67.525,231.214 67.248 C 231.786 66.992,232.926 66.684,233.747 66.564 C 234.568 66.445,235.784 66.089,236.450 65.775 C 237.115 65.460,237.721 65.202,237.796 65.202 C 237.872 65.202,238.684 64.838,239.602 64.393 C 240.519 63.948,241.114 63.584,240.924 63.584 C 240.734 63.584,239.954 63.877,239.191 64.235 M165.087 110.949 C 164.514 111.043,163.804 111.253,163.508 111.416 C 163.212 111.579,162.475 111.859,161.870 112.039 C 161.265 112.218,160.529 112.574,160.234 112.830 C 159.939 113.086,159.554 113.295,159.379 113.295 C 159.104 113.295,158.284 113.963,157.075 115.171 C 156.284 115.962,155.423 117.159,155.265 117.688 C 155.170 118.006,154.870 118.630,154.599 119.075 C 153.705 120.543,153.737 124.650,154.657 126.539 C 155.053 127.350,155.376 128.079,155.376 128.158 C 155.376 129.364,159.299 132.904,162.081 134.208 C 162.526 134.417,163.514 134.939,164.277 135.370 C 165.040 135.800,166.081 136.356,166.590 136.605 C 167.098 136.854,168.128 137.634,168.877 138.338 L 170.240 139.617 170.113 141.193 C 170.018 142.374,169.883 142.828,169.575 143.003 C 169.348 143.132,168.912 143.497,168.605 143.815 C 167.801 144.649,162.112 144.700,160.453 143.888 C 159.886 143.611,158.928 143.212,158.324 143.002 C 157.720 142.792,157.225 142.528,157.225 142.415 C 157.225 142.008,154.663 140.967,154.373 141.256 C 153.431 142.196,154.010 150.289,155.020 150.289 C 155.166 150.289,155.633 150.545,156.057 150.858 C 156.481 151.171,157.307 151.492,157.894 151.573 C 158.480 151.654,159.939 151.918,161.135 152.160 C 163.966 152.734,166.693 152.734,168.489 152.160 C 169.248 151.917,170.460 151.645,171.181 151.555 C 171.902 151.465,172.725 151.210,173.009 150.989 C 173.293 150.768,173.942 150.456,174.451 150.295 C 175.412 149.992,175.650 149.813,177.285 148.162 C 179.830 145.591,181.169 140.691,180.098 137.872 C 179.980 137.563,179.884 137.014,179.884 136.650 C 179.884 136.283,179.628 135.684,179.306 135.302 C 178.988 134.924,178.728 134.492,178.728 134.342 C 178.728 133.958,175.589 130.867,175.199 130.867 C 175.023 130.867,174.634 130.607,174.335 130.289 C 174.037 129.971,173.669 129.711,173.518 129.711 C 173.367 129.711,172.839 129.436,172.345 129.101 C 171.850 128.765,171.133 128.387,170.752 128.260 C 170.370 128.132,169.850 127.848,169.595 127.627 C 169.341 127.405,168.744 127.100,168.269 126.948 C 167.794 126.796,167.343 126.571,167.267 126.448 C 167.191 126.325,166.723 125.968,166.226 125.654 C 165.601 125.259,165.106 124.654,164.616 123.683 L 163.908 122.281 164.725 120.821 L 165.542 119.360 167.075 119.071 C 169.916 118.535,173.385 118.924,175.675 120.035 C 178.519 121.415,178.730 121.168,178.725 116.459 C 178.721 112.692,178.599 112.396,176.879 111.962 C 176.179 111.785,175.437 111.488,175.230 111.301 C 174.801 110.914,166.963 110.642,165.087 110.949 M198.844 111.225 C 198.145 111.493,197.000 111.871,196.301 112.064 C 195.601 112.258,194.873 112.549,194.682 112.712 C 194.491 112.874,193.867 113.212,193.295 113.464 C 192.723 113.715,192.056 114.145,191.814 114.417 C 191.572 114.690,191.259 114.917,191.120 114.921 C 190.519 114.939,187.164 118.946,186.362 120.605 C 186.109 121.129,185.752 121.681,185.570 121.832 C 185.388 121.984,185.169 122.544,185.084 123.077 C 184.998 123.610,184.658 124.618,184.328 125.318 C 183.458 127.158,183.374 136.254,184.209 138.150 C 184.489 138.786,184.836 139.775,184.981 140.347 C 185.127 140.919,185.381 141.543,185.548 141.734 C 185.714 141.925,186.016 142.482,186.218 142.972 C 186.797 144.375,190.119 148.099,191.372 148.750 C 191.730 148.936,192.276 149.310,192.586 149.580 C 192.896 149.850,193.416 150.132,193.742 150.207 C 194.068 150.282,194.753 150.582,195.264 150.873 C 195.775 151.164,196.766 151.508,197.465 151.637 C 198.164 151.766,199.285 152.088,199.955 152.352 C 200.625 152.616,201.377 152.832,201.627 152.832 C 201.877 152.832,202.471 153.253,202.948 153.767 C 203.425 154.282,204.465 155.354,205.260 156.150 C 206.055 156.946,206.705 157.680,206.705 157.781 C 206.705 157.882,206.991 158.258,207.341 158.617 C 208.547 159.855,208.963 160.349,209.219 160.848 C 209.886 162.149,220.288 162.731,221.175 161.517 C 221.534 161.025,221.624 159.769,221.301 159.769 C 221.190 159.769,220.643 159.291,220.087 158.707 C 219.530 158.122,218.555 157.253,217.919 156.776 C 217.283 156.298,215.983 155.113,215.029 154.143 C 214.075 153.173,213.165 152.377,213.006 152.374 C 212.847 152.372,212.717 152.261,212.717 152.128 C 212.717 151.995,212.458 151.628,212.142 151.312 L 211.568 150.737 212.157 150.513 C 212.482 150.390,212.843 150.289,212.961 150.289 C 213.079 150.289,213.306 150.076,213.466 149.815 C 213.626 149.554,214.176 149.154,214.689 148.925 C 215.729 148.462,219.191 145.174,219.191 144.649 C 219.191 144.464,219.437 144.019,219.737 143.659 C 220.038 143.300,220.360 142.746,220.454 142.428 C 220.548 142.110,220.863 141.486,221.155 141.040 C 221.447 140.595,221.758 139.711,221.846 139.075 C 221.935 138.439,222.232 137.399,222.506 136.763 C 223.272 134.991,223.251 127.361,222.476 125.727 C 222.191 125.125,221.894 124.137,221.816 123.530 C 221.729 122.856,221.469 122.203,221.144 121.850 C 220.853 121.532,220.546 120.899,220.462 120.444 C 220.376 119.974,220.019 119.342,219.635 118.980 C 219.263 118.629,218.960 118.240,218.960 118.115 C 218.960 117.799,217.506 116.079,217.234 116.074 C 217.112 116.071,216.748 115.806,216.425 115.484 C 214.913 113.975,214.092 113.295,213.783 113.295 C 213.597 113.295,213.152 113.050,212.792 112.750 C 212.433 112.451,211.566 112.073,210.867 111.912 C 210.168 111.750,209.407 111.452,209.176 111.251 C 208.440 110.608,200.508 110.588,198.844 111.225 M171.692 111.682 C 172.035 111.813,173.503 112.112,174.954 112.348 C 178.208 112.876,177.919 112.472,177.919 116.493 L 177.919 119.884 177.341 119.822 C 177.023 119.788,176.486 119.558,176.148 119.311 C 175.810 119.063,174.925 118.761,174.183 118.639 C 173.440 118.517,172.446 118.253,171.973 118.052 C 170.872 117.586,168.258 117.572,167.435 118.028 C 167.097 118.215,166.379 118.479,165.840 118.615 C 165.118 118.796,164.765 119.042,164.504 119.546 C 164.309 119.923,164.061 120.231,163.953 120.231 C 163.550 120.231,163.181 121.649,163.290 122.780 C 163.400 123.928,163.487 124.070,165.027 125.609 C 166.375 126.958,166.663 127.177,167.424 127.431 C 167.855 127.576,168.416 127.875,168.671 128.096 C 168.925 128.317,169.549 128.626,170.058 128.783 C 170.566 128.940,171.095 129.209,171.233 129.381 C 171.371 129.554,171.945 129.892,172.508 130.134 C 173.072 130.375,173.674 130.743,173.847 130.951 C 174.019 131.159,174.296 131.329,174.461 131.329 C 174.825 131.329,178.035 134.399,178.035 134.747 C 178.035 134.882,178.321 135.333,178.671 135.749 L 179.306 136.505 179.306 140.333 C 179.306 143.968,179.281 144.188,178.798 144.670 C 178.519 144.949,178.180 145.588,178.045 146.088 C 177.883 146.692,177.639 147.041,177.322 147.124 C 177.059 147.193,176.792 147.449,176.728 147.694 C 176.664 147.939,176.255 148.309,175.820 148.517 C 175.385 148.724,175.029 148.996,175.029 149.120 C 175.029 149.245,174.491 149.506,173.834 149.701 C 173.177 149.896,172.463 150.216,172.247 150.411 C 171.019 151.523,158.411 151.672,157.327 150.589 C 157.134 150.395,156.485 150.051,155.887 149.824 L 154.798 149.410 154.798 145.919 L 154.798 142.428 155.541 142.428 C 156.043 142.428,156.363 142.575,156.527 142.882 C 156.661 143.132,157.211 143.465,157.749 143.622 C 158.288 143.779,158.999 144.103,159.330 144.342 C 160.151 144.935,163.017 145.271,166.088 145.136 L 168.592 145.025 169.494 144.114 C 170.638 142.959,171.094 141.717,170.879 140.341 C 170.714 139.283,170.064 137.804,169.763 137.803 C 169.671 137.803,169.283 137.530,168.902 137.196 C 168.520 136.862,167.846 136.435,167.403 136.246 C 166.960 136.057,166.469 135.719,166.312 135.495 C 166.155 135.271,165.555 134.969,164.979 134.824 C 164.402 134.679,163.931 134.456,163.931 134.329 C 163.931 134.202,163.384 133.833,162.717 133.509 C 160.371 132.371,159.826 132.006,158.474 130.667 C 156.548 128.761,155.903 127.862,155.706 126.814 C 155.612 126.312,155.345 125.483,155.113 124.973 C 154.643 123.938,154.546 121.843,154.935 121.116 C 155.074 120.856,155.369 119.989,155.591 119.190 C 156.175 117.083,158.462 114.347,160.038 113.868 C 160.335 113.778,160.799 113.503,161.068 113.256 C 161.357 112.992,162.399 112.633,163.611 112.380 C 164.741 112.145,165.925 111.845,166.243 111.713 C 167.000 111.400,170.892 111.378,171.692 111.682 M206.420 111.714 C 206.568 111.862,207.746 112.169,209.039 112.395 C 210.576 112.665,211.558 112.960,211.879 113.250 C 212.149 113.494,212.723 113.811,213.154 113.956 C 213.907 114.208,214.283 114.499,215.661 115.896 C 216.006 116.246,216.418 116.532,216.578 116.532 C 216.737 116.532,217.051 116.818,217.274 117.168 C 217.497 117.517,217.864 117.939,218.088 118.106 C 218.313 118.272,218.497 118.544,218.497 118.710 C 218.497 118.876,218.809 119.404,219.191 119.884 C 219.572 120.364,219.886 120.925,219.887 121.130 C 219.889 121.335,220.150 121.958,220.468 122.514 C 221.467 124.261,222.590 132.359,222.027 133.757 C 221.874 134.139,221.597 135.569,221.412 136.935 C 221.180 138.650,220.937 139.596,220.629 139.988 C 220.383 140.301,220.049 141.029,219.887 141.608 C 219.726 142.186,219.497 142.659,219.380 142.659 C 219.263 142.659,219.006 143.049,218.810 143.526 C 218.415 144.484,214.528 148.439,213.981 148.439 C 213.794 148.439,213.442 148.639,213.199 148.882 C 212.955 149.126,212.279 149.536,211.696 149.794 C 209.946 150.568,209.593 150.111,218.541 158.656 C 220.697 160.714,220.733 160.694,215.021 160.694 L 210.184 160.694 209.774 160.060 C 209.549 159.711,208.870 158.932,208.266 158.329 C 207.662 157.725,207.168 157.162,207.168 157.078 C 207.168 156.993,206.569 156.305,205.838 155.550 C 201.676 151.248,202.218 151.599,199.145 151.203 C 197.743 151.022,196.858 150.775,196.301 150.409 C 195.855 150.116,195.100 149.808,194.622 149.725 C 194.143 149.642,193.519 149.361,193.234 149.101 C 192.732 148.642,191.755 147.939,190.474 147.113 C 190.131 146.892,189.747 146.484,189.621 146.208 C 189.495 145.931,189.188 145.640,188.939 145.561 C 188.689 145.482,188.420 145.156,188.340 144.838 C 188.260 144.520,187.886 143.936,187.508 143.540 C 187.130 143.145,186.821 142.645,186.821 142.428 C 186.821 142.212,186.511 141.577,186.131 141.017 C 185.701 140.383,185.439 139.696,185.433 139.191 C 185.428 138.746,185.166 137.653,184.852 136.763 C 184.082 134.587,184.029 130.233,184.740 127.745 C 184.995 126.855,185.315 125.503,185.453 124.740 C 185.590 123.977,185.848 123.191,186.025 122.994 C 186.201 122.797,186.498 122.206,186.683 121.681 C 186.869 121.155,187.225 120.521,187.475 120.271 C 187.725 120.020,188.065 119.441,188.231 118.983 C 188.397 118.525,188.672 118.150,188.843 118.150 C 189.014 118.150,189.332 117.838,189.548 117.456 C 189.765 117.074,190.115 116.706,190.326 116.638 C 190.537 116.570,190.878 116.258,191.083 115.945 C 191.288 115.632,191.586 115.376,191.745 115.376 C 191.903 115.376,192.405 115.070,192.858 114.696 C 193.312 114.322,193.986 113.944,194.356 113.856 C 194.726 113.768,195.255 113.492,195.531 113.241 C 195.844 112.958,196.722 112.666,197.858 112.469 C 198.862 112.295,200.041 111.997,200.478 111.808 C 201.469 111.378,206.011 111.306,206.420 111.714 M229.437 111.678 C 228.436 112.081,228.439 112.012,228.439 131.864 C 228.439 149.310,228.472 150.953,228.821 151.243 C 229.351 151.683,252.123 151.842,252.644 151.410 C 252.917 151.183,252.966 150.489,252.906 147.728 C 252.802 142.932,253.534 143.353,245.296 143.353 C 241.036 143.353,238.588 143.268,238.495 143.118 C 238.415 142.988,238.360 136.088,238.373 127.783 C 238.397 112.763,238.394 112.680,237.910 112.064 L 237.423 111.445 233.683 111.460 C 231.625 111.468,229.715 111.566,229.437 111.678 M237.457 127.977 C 237.568 142.917,237.618 144.003,238.216 144.554 C 238.244 144.580,241.387 144.658,245.202 144.728 L 252.139 144.855 252.203 147.921 L 252.268 150.987 241.105 150.927 L 229.942 150.867 229.883 131.806 C 229.836 116.712,229.884 112.707,230.114 112.558 C 230.274 112.455,231.965 112.396,233.873 112.428 L 237.341 112.486 237.457 127.977 M200.411 118.833 C 200.065 118.942,199.504 119.250,199.166 119.516 C 198.827 119.782,198.388 120.000,198.190 120.000 C 197.892 120.000,196.526 121.307,195.048 123.006 C 194.570 123.555,194.293 124.206,194.115 125.202 C 194.024 125.711,193.807 126.286,193.632 126.481 C 192.688 127.535,192.606 135.255,193.522 136.809 C 193.768 137.225,194.083 137.989,194.223 138.508 C 194.707 140.308,197.488 143.406,198.886 143.703 C 199.308 143.793,199.846 144.037,200.081 144.245 C 200.777 144.861,205.080 144.926,206.079 144.336 C 206.495 144.091,207.141 143.814,207.516 143.720 C 208.353 143.510,211.013 141.214,211.233 140.512 C 211.321 140.230,211.632 139.713,211.925 139.363 C 212.218 139.013,212.531 138.238,212.620 137.641 C 212.710 137.045,212.985 136.099,213.233 135.539 C 213.831 134.188,213.771 128.097,213.151 127.152 C 212.944 126.837,212.699 126.114,212.607 125.544 C 212.514 124.975,212.205 124.249,211.921 123.931 C 211.636 123.613,211.280 123.040,211.129 122.659 C 210.841 121.932,209.463 120.714,207.519 119.467 C 206.299 118.684,202.073 118.308,200.411 118.833 M206.417 119.942 C 206.703 120.228,207.082 120.462,207.260 120.462 C 207.743 120.462,210.372 122.762,210.535 123.327 C 210.612 123.595,210.937 124.035,211.257 124.305 C 211.872 124.822,212.062 125.768,212.407 130.024 C 212.642 132.915,211.902 138.728,211.300 138.728 C 211.176 138.728,210.929 139.066,210.751 139.480 C 210.459 140.158,209.804 140.906,208.092 142.514 C 206.431 144.075,199.936 143.812,197.914 142.102 C 196.039 140.518,195.036 139.037,194.604 137.222 C 194.393 136.334,194.057 135.035,193.858 134.335 C 193.442 132.880,193.511 129.015,193.962 128.471 C 194.110 128.292,194.386 127.341,194.574 126.356 C 194.834 124.998,195.084 124.376,195.609 123.778 C 195.989 123.344,196.301 122.889,196.301 122.767 C 196.301 122.291,198.135 120.734,198.878 120.579 C 199.304 120.490,199.913 120.245,200.231 120.035 C 201.256 119.358,201.469 119.317,203.700 119.370 C 205.631 119.416,205.960 119.485,206.417 119.942 " stroke="none" fill="#97c3cc" fill-rule="evenodd"></path></g></svg>